<svg width="50" height="50" viewBox="0 0 50 50" fill="none" xmlns="http://www.w3.org/2000/svg">
<path d="M25 0C11.2069 0 0 11.2069 0 25C0 38.7931 11.2069 50 25 50C38.7931 50 50 38.7931 50 25C50 11.2069 38.7931 0 25 0ZM12.8857 45.0998C16.0617 46.2795 19.6915 47.0054 23.5481 47.1869C24.1833 47.2323 24.7731 47.2323 25.4083 47.2323C29.4465 47.2323 33.3031 46.5971 36.4791 45.4628C33.0762 47.3684 29.1289 48.5027 24.9546 48.5027C20.5989 48.4574 16.4247 47.2323 12.8857 45.0998ZM17.5136 30.1724L18.6025 30.0363L17.6951 27.1779L18.7387 27.0417L30.853 25.2269L31.2613 28.539L31.3975 29.5372L17.7858 31.1706L17.5136 30.1724ZM17.1506 36.0708L17.7405 34.9818L32.2142 33.2577L32.7132 34.2105L37.2958 43.4664C33.6207 45.0544 28.8113 45.8258 23.6842 45.5989C19.8276 45.4174 16.1978 44.6915 13.1125 43.4664L17.1506 36.0708ZM40.6987 42.4229L40.245 41.833C39.6098 42.2868 38.9292 42.6951 38.1579 43.1034L33.7568 34.1198L33.3031 33.1216L36.1162 32.804C36.4338 32.7586 36.7514 32.5771 36.9328 32.3503C37.1597 32.078 37.2505 31.7604 37.2051 31.4428L37.069 30.1724C36.9782 29.4918 36.4338 29.0381 35.7985 29.0381C35.7532 29.0381 35.7078 29.0381 35.6624 29.0381L32.3956 29.4465L32.2595 28.4483L31.8512 25.0907L33.8475 24.7731C34.1198 24.7278 34.3013 24.4555 34.3013 24.1833C34.2559 23.9111 33.9837 23.7296 33.7114 23.7296L31.216 24.0926L18.3757 25.9982L17.3321 26.1343L13.6116 14.8367C13.5209 14.5191 13.294 14.2468 12.9764 14.1107C12.7949 14.02 12.6134 13.9746 12.4319 13.9746C12.2958 13.9746 12.1597 13.9746 12.0236 14.02L10.8893 14.4737C10.5717 14.5644 10.2995 14.7913 10.1633 15.1089C9.98185 15.4265 9.98185 15.7441 10.0726 16.0617L15.0635 31.216C15.4265 30.7623 15.9256 30.3993 16.5154 30.3085L16.7423 31.3067C16.0617 31.3975 15.5626 32.0327 15.6534 32.7132L15.7441 33.5753L15.3358 33.6207C15.1089 33.6661 14.882 33.6207 14.7005 33.5753C14.2468 33.4392 13.8385 33.0762 13.7024 32.5771L8.21234 15.2904C8.1216 15.0181 7.84937 14.882 7.57713 14.9728C7.3049 15.0635 7.16878 15.3358 7.25953 15.608L12.7495 32.8947C13.0672 33.8929 13.9292 34.5735 14.9274 34.6642C15.0181 34.6642 15.0635 34.6642 15.1543 34.6642C15.245 34.6642 15.3358 34.6642 15.4719 34.6642L16.0617 34.5735C16.1071 34.6642 16.1978 34.7096 16.2886 34.8004C16.3793 34.8911 16.5154 34.9365 16.6062 34.9818L16.1071 35.8893L12.1597 43.1488C11.343 42.7858 10.5263 42.3775 9.80036 41.9691L9.43739 42.559C4.58258 38.2486 1.54265 31.9873 1.54265 25C1.54265 12.069 12.069 1.54265 25 1.54265C27.314 1.54265 29.4918 1.86025 31.6243 2.49546V9.39201H29.9002L28.7659 16.3793H30.3085C30.6261 17.0145 31.2613 17.4682 31.9873 17.4682C32.7132 17.4682 33.3938 17.0145 33.6661 16.3793H35.2087L34.1198 9.39201H32.3956V2.72232C41.7423 5.80762 48.5027 14.6552 48.5027 25C48.4574 31.8966 45.4628 38.1125 40.6987 42.4229Z" fill="black"/>
</svg>
