<svg width="50" height="50" viewBox="0 0 50 50" fill="none" xmlns="http://www.w3.org/2000/svg">
<path d="M25 0C11.2069 0 0 11.2069 0 25C0 38.7931 11.2069 50 25 50C38.7931 50 50 38.7931 50 25C50 11.2069 38.7931 0 25 0ZM47.3684 17.8766C48.0944 20.1452 48.4574 22.5045 48.4574 25C48.4574 27.4955 48.049 29.9002 47.3684 32.1234V17.8766ZM46.3249 34.755C45.5535 36.3884 44.6461 37.931 43.5572 39.3376V10.6624C44.6461 12.069 45.5989 13.6116 46.3249 15.245V34.755ZM38.7477 5.98911V44.0109C37.9764 44.5554 37.2051 45.0544 36.343 45.5082L33.6661 33.8475C33.5753 33.3938 33.3485 32.9401 33.1216 32.5318C33.7114 32.3956 34.2559 32.078 34.6642 31.5789C35.0272 31.1706 35.2087 30.6715 35.3448 29.9909C35.3448 29.9002 35.3448 29.8548 35.3448 29.7641C35.3448 29.1289 35.0726 28.539 34.6189 28.1307C34.1652 27.7223 33.4846 27.5408 32.804 27.6316C30.7169 27.9492 28.5844 28.1307 26.4973 28.176V26.0436C26.951 25.9982 27.4047 25.9528 27.8584 25.9074C30.3539 25.5898 33.3485 23.5027 33.8022 20.6897C34.1198 18.4211 34.1198 16.1071 33.8022 13.8385C33.3485 11.1162 30.49 9.02904 28.0853 8.66606C25.9528 8.34846 23.9564 8.34846 21.7786 8.66606C19.3739 9.02904 16.5154 11.1162 16.0617 13.8385C15.7441 16.1071 15.7441 18.4211 16.0617 20.6897C16.5154 23.5027 19.51 25.5898 22.0054 25.9074C22.4592 25.9528 22.9583 25.9982 23.412 26.0436V28.176C21.3249 28.1307 19.1924 27.9492 17.1053 27.6316C15.6987 27.4047 14.5644 28.4029 14.5644 29.7641C14.5644 29.8094 14.5644 29.9002 14.5644 29.9456C14.6552 31.1706 15.608 32.2595 16.7877 32.5318C16.5154 32.9401 16.3339 33.3485 16.2432 33.8475L13.5662 45.5082C12.7495 45.0544 11.9328 44.5554 11.2069 44.0109V5.98911C15.1543 3.17604 19.873 1.54265 25 1.54265C30.127 1.54265 34.8911 3.17604 38.7477 5.98911ZM22.2323 25C20.0998 24.7278 17.559 22.9129 17.196 20.6443C16.8784 18.4664 16.8784 16.2886 17.196 14.1107C17.559 11.9328 19.9637 10.118 22.0508 9.80036C23.0944 9.66425 24.0472 9.5735 25.0454 9.5735C26.0436 9.5735 26.9964 9.66425 28.0399 9.80036C30.0817 10.118 32.5318 11.9328 32.8947 14.1107C33.2123 16.2886 33.2123 18.4664 32.8947 20.6443C32.5318 22.9129 29.9909 24.7278 27.8584 25C25.9074 25.2269 24.1379 25.2269 22.2323 25ZM17.196 31.6243C16.4247 31.4882 15.7441 30.7623 15.6987 29.9002V29.8548C15.6987 29.1742 16.1524 28.7205 16.833 28.7205C16.9238 28.7205 16.9691 28.7205 17.0599 28.7205C22.3684 29.5372 27.7223 29.5372 33.0309 28.7205C33.3938 28.6751 33.7568 28.7659 34.029 28.9474C34.2559 29.1289 34.392 29.4465 34.392 29.8094V29.8548C34.3013 30.49 34.1198 30.7622 33.9383 30.9437C33.6661 31.2613 33.2577 31.4882 32.8947 31.5789C27.6316 32.3956 22.3684 32.3956 17.196 31.6243ZM17.8766 34.2105C18.0127 33.6661 18.2849 33.167 18.7387 32.8494C19.1016 32.8947 19.4192 32.9401 19.7822 32.9401C19.6915 33.2577 19.6007 33.5753 19.5554 33.9383L17.922 47.3231C16.9691 47.0054 16.0617 46.6425 15.1543 46.2341L17.8766 34.2105ZM31.3521 32.8494C31.7604 33.2123 32.078 33.6661 32.2142 34.2105L34.9365 46.2795C34.029 46.6878 33.1216 47.0508 32.1688 47.3684L30.5354 33.9837C30.49 33.6207 30.3993 33.3031 30.3085 32.9855C30.6261 32.8947 30.9891 32.8947 31.3521 32.8494ZM6.4882 10.6171V39.3829C5.39927 37.9764 4.44646 36.4338 3.72051 34.8004V15.1996C4.44646 13.5662 5.39927 12.0236 6.4882 10.6171ZM2.67695 17.8312V32.2142C1.951 29.9456 1.54265 27.5408 1.54265 25C1.54265 22.4592 1.951 20.0998 2.67695 17.8312ZM7.48639 40.608V9.39201C8.34846 8.4392 9.2559 7.53176 10.2541 6.76044V43.2849C9.30127 42.4682 8.34846 41.5608 7.48639 40.608ZM19.3739 47.7768L21.0526 34.1198C21.098 33.7114 21.2341 33.3485 21.3702 33.0762C22.5953 33.167 23.8203 33.2123 25.0454 33.2123C26.2704 33.2123 27.4955 33.167 28.7205 33.0762C28.8566 33.3485 28.9474 33.7114 29.0381 34.1198L30.7169 47.7768C28.902 48.2305 26.9964 48.4574 25.0454 48.4574C23.049 48.4574 21.1887 48.2305 19.3739 47.7768ZM39.7459 43.2396V6.76044C40.7441 7.57713 41.6515 8.4392 42.5136 9.39201V40.5626C41.6969 41.5608 40.7441 42.4229 39.7459 43.2396Z" fill="black"/>
</svg>
