<svg width="126" height="48" viewBox="0 0 126 48" fill="none" xmlns="http://www.w3.org/2000/svg">
<path fill-rule="evenodd" clip-rule="evenodd" d="M36.8 19.5H38.047C38.2215 19.5041 38.3907 19.4395 38.518 19.3201C38.5807 19.2634 38.6305 19.1939 38.664 19.1162C38.6975 19.0386 38.7138 18.9547 38.712 18.8701V10.77C38.6754 10.3313 38.7349 9.88973 38.8864 9.47633C39.0379 9.06293 39.2777 8.68751 39.5891 8.37624C39.9004 8.06496 40.2759 7.82543 40.6893 7.67409C41.1028 7.52275 41.5442 7.46332 41.983 7.50001H43.563C43.6498 7.50532 43.7368 7.492 43.818 7.46095C43.8992 7.42991 43.9729 7.38193 44.034 7.32008C44.1458 7.19744 44.2054 7.03603 44.2 6.87013V5.85011C44.2098 5.7644 44.1999 5.67756 44.1713 5.59621C44.1426 5.51485 44.0958 5.44104 44.0345 5.38039C43.9732 5.31973 43.8988 5.27364 43.8171 5.24586C43.7355 5.21809 43.6486 5.20929 43.563 5.21999H42.482C41.7303 5.1508 40.974 5.28858 40.2949 5.61818C39.6158 5.94777 39.0397 6.45675 38.629 7.0901V5.8799C38.6332 5.79186 38.6193 5.70412 38.5884 5.6216C38.5574 5.53907 38.51 5.46351 38.449 5.39992C38.3845 5.33865 38.3083 5.29121 38.225 5.26027C38.1416 5.22933 38.0528 5.21561 37.964 5.21999H36.8C36.7145 5.21666 36.6292 5.23186 36.5502 5.26466C36.4711 5.29746 36.4 5.34703 36.342 5.40993C36.2235 5.53747 36.159 5.70587 36.162 5.8799V18.8701C36.1597 18.9535 36.1745 19.0362 36.2054 19.1135C36.2364 19.1909 36.2829 19.2613 36.342 19.3201C36.402 19.3797 36.4737 19.4263 36.5524 19.4573C36.6312 19.4882 36.7154 19.5028 36.8 19.5ZM52.017 19.77C53.0982 19.7937 54.1716 19.582 55.163 19.1499C55.9644 18.8175 56.6867 18.3201 57.283 17.69C57.6931 17.3039 57.9576 16.7883 58.032 16.23C58.0336 16.1599 58.0181 16.0904 57.9867 16.0276C57.9553 15.9649 57.9091 15.9109 57.852 15.8701C57.7268 15.7807 57.5757 15.7349 57.422 15.74H56.2C56.0407 15.7309 55.881 15.7513 55.729 15.8001C55.5758 15.908 55.4442 16.0436 55.341 16.2C54.998 16.6255 54.5801 16.9848 54.108 17.26C53.4627 17.6252 52.7278 17.802 51.987 17.77C51.4662 17.7873 50.9488 17.6812 50.4768 17.4605C50.0048 17.2398 49.5917 16.9107 49.271 16.5C48.5772 15.6361 48.1875 14.5677 48.162 13.46V13.21H57.78C57.8645 13.2127 57.9485 13.1982 58.0271 13.1673C58.1057 13.1363 58.1771 13.0896 58.237 13.03C58.2964 12.9715 58.3432 12.9012 58.3743 12.8237C58.4055 12.7463 58.4204 12.6635 58.418 12.5801V12.0801C58.5206 10.1961 57.9233 8.3406 56.741 6.87013C55.5151 5.6633 53.8728 4.97281 52.1529 4.94118C50.4329 4.90955 48.7664 5.53902 47.497 6.69997C46.3206 7.99265 45.6598 9.67223 45.64 11.4199L45.612 12.3301L45.64 13.26C45.6485 15.0248 46.31 16.724 47.497 18.03C48.0883 18.6175 48.7953 19.0755 49.5731 19.375C50.3509 19.6746 51.1824 19.8091 52.015 19.77H52.017ZM48.164 11.3401V11.26C48.1153 10.1268 48.4799 9.01439 49.19 8.1299C49.538 7.7263 49.9736 7.40771 50.4635 7.19801C50.9534 6.98832 51.4848 6.89309 52.017 6.91994C52.5488 6.89671 53.079 6.99344 53.5684 7.2029C54.0577 7.41235 54.4937 7.72912 54.844 8.1299C55.5703 9.00693 55.9455 10.1223 55.897 11.26V11.3401H48.164ZM62.439 19.5H63.658C63.7424 19.5028 63.8265 19.4882 63.9051 19.4573C63.9837 19.4263 64.0551 19.3797 64.115 19.3201C64.1744 19.2615 64.2212 19.1912 64.2523 19.1138C64.2835 19.0364 64.2983 18.9535 64.296 18.8701V11.1499C64.1929 10.0309 64.5366 8.91666 65.252 8.05006C65.5471 7.74191 65.9024 7.49768 66.2958 7.33253C66.6892 7.16739 67.1124 7.0849 67.539 7.0901C67.9787 7.07944 68.4159 7.15911 68.8236 7.32423C69.2313 7.48936 69.6007 7.7364 69.909 8.05006C70.6269 8.92707 70.9704 10.0515 70.865 11.1799V18.8701C70.8627 18.9535 70.8775 19.0362 70.9084 19.1135C70.9394 19.1909 70.9859 19.2613 71.045 19.3201C71.1048 19.3797 71.1763 19.4263 71.2549 19.4573C71.3335 19.4882 71.4176 19.5028 71.502 19.5H72.722C72.8064 19.5027 72.8905 19.4882 72.9691 19.4573C73.0476 19.4263 73.1191 19.3796 73.179 19.3201C73.2381 19.2613 73.2846 19.1909 73.3156 19.1135C73.3465 19.0362 73.3613 18.9535 73.359 18.8701V11.1799C73.2583 10.0549 73.6018 8.9352 74.316 8.06007C74.609 7.74883 74.9636 7.50171 75.3571 7.33473C75.7506 7.16775 76.1745 7.08458 76.602 7.0901C77.0473 7.07014 77.4919 7.14332 77.9073 7.30519C78.3226 7.46706 78.6996 7.714 79.014 8.03004C79.7082 8.9256 80.0354 10.0518 79.929 11.1799V18.8701C79.9265 18.9535 79.9412 19.0364 79.9722 19.1138C80.0031 19.1912 80.0497 19.2615 80.109 19.3201C80.1689 19.3797 80.2403 19.4263 80.3189 19.4573C80.3975 19.4882 80.4816 19.5028 80.566 19.5H81.758C81.8424 19.5027 81.9265 19.4882 82.0051 19.4573C82.0836 19.4263 82.1551 19.3796 82.215 19.3201C82.2743 19.2614 82.3209 19.1912 82.3521 19.1138C82.3832 19.0364 82.3981 18.9535 82.396 18.8701V10.9299C82.5061 9.31629 81.9896 7.72238 80.954 6.48C80.4798 5.97432 79.9033 5.57536 79.2629 5.30983C78.6225 5.0443 77.9329 4.91823 77.24 4.93996C76.2764 4.92669 75.3259 5.16443 74.482 5.6299C73.6916 6.05701 73.0342 6.69373 72.582 7.46999C72.1966 6.66447 71.5787 5.99297 70.8079 5.54201C70.0372 5.09105 69.149 4.88129 68.258 4.93996C67.4869 4.91073 66.7197 5.06194 66.0173 5.38136C65.3149 5.70079 64.6967 6.17971 64.212 6.78004V5.85011C64.217 5.68409 64.1571 5.52246 64.045 5.39992C63.9884 5.33989 63.9195 5.29279 63.8431 5.26173C63.7666 5.23067 63.6844 5.21645 63.602 5.21999H62.44C62.3554 5.2172 62.2711 5.23176 62.1924 5.26271C62.1136 5.29366 62.042 5.34029 61.982 5.39992C61.9229 5.45868 61.8764 5.52907 61.8455 5.60646C61.8145 5.68385 61.7997 5.76679 61.802 5.85011V18.8701C61.7997 18.9535 61.8145 19.0362 61.8455 19.1135C61.8764 19.1909 61.9229 19.2613 61.982 19.3201C62.042 19.3797 62.1136 19.4263 62.1924 19.4573C62.2711 19.4882 62.3554 19.5028 62.44 19.5H62.439ZM92.263 19.77C93.1212 19.8247 93.9814 19.7019 94.79 19.4094C95.5987 19.117 96.3384 18.6611 96.963 18.0701C98.1002 16.8362 98.7289 15.218 98.723 13.5401C98.76 13.1401 98.779 12.7401 98.779 12.3601C98.779 11.9801 98.76 11.5799 98.723 11.1799C98.732 9.49615 98.0916 7.87365 96.935 6.64992C95.6293 5.54571 93.9746 4.93996 92.2645 4.93996C90.5545 4.93996 88.8997 5.54571 87.594 6.64992C86.4374 7.87365 85.797 9.49615 85.806 11.1799L85.779 12.3601L85.806 13.5401C85.8 15.2182 86.4291 16.8366 87.567 18.0701C88.1915 18.6613 88.9312 19.1172 89.7399 19.4097C90.5485 19.7022 91.4088 19.8249 92.267 19.77H92.263ZM92.263 17.71C91.742 17.7356 91.2215 17.6499 90.7363 17.4585C90.251 17.2671 89.8122 16.9745 89.449 16.6001C88.6988 15.7051 88.3001 14.5674 88.327 13.3999L88.299 12.3601L88.327 11.3101C88.2999 10.1456 88.6989 9.01128 89.449 8.12013C90.2092 7.40095 91.216 7.00001 92.2625 7.00001C93.309 7.00001 94.3158 7.40095 95.076 8.12013C95.826 9.01142 96.2252 10.1455 96.199 11.3101C96.217 11.5001 96.226 11.8501 96.226 12.3601C96.226 12.8701 96.217 13.2199 96.199 13.3999C96.2251 14.5675 95.826 15.7049 95.076 16.6001C94.7129 16.9744 94.2742 17.2669 93.7892 17.4583C93.3041 17.6497 92.7838 17.7355 92.263 17.71ZM107.679 19.5H109.559C109.641 19.5032 109.723 19.4888 109.799 19.4578C109.874 19.4267 109.943 19.3798 109.999 19.3201C110.112 19.1977 110.173 19.0365 110.169 18.8701V17.96C110.173 17.7936 110.112 17.6324 109.999 17.51C109.943 17.4503 109.874 17.4034 109.799 17.3723C109.723 17.3413 109.641 17.3269 109.559 17.3301H107.869C107.567 17.3591 107.263 17.3076 106.987 17.1812C106.711 17.0547 106.474 16.8578 106.299 16.6101C105.958 15.9615 105.802 15.2313 105.849 14.5V7.33009H109.279C109.447 7.33882 109.612 7.28124 109.739 7.16994C109.799 7.11375 109.846 7.04541 109.877 6.9695C109.908 6.89359 109.922 6.81195 109.919 6.73V5.85011C109.921 5.76679 109.907 5.68385 109.876 5.60646C109.845 5.52907 109.798 5.45868 109.739 5.39992C109.679 5.3399 109.607 5.29295 109.528 5.26198C109.449 5.23101 109.364 5.21674 109.279 5.21999H105.849V0.629898C105.851 0.546579 105.836 0.463878 105.806 0.38649C105.775 0.309101 105.728 0.238711 105.669 0.179947C105.608 0.120689 105.536 0.0743911 105.457 0.043472C105.378 0.012553 105.294 -0.00228985 105.209 1.50021e-05H103.989C103.907 -0.00423404 103.825 0.00967033 103.749 0.0407865C103.673 0.0719026 103.605 0.119394 103.549 0.179947C103.491 0.239168 103.446 0.309778 103.417 0.387222C103.388 0.464666 103.375 0.54722 103.379 0.629898V5.21999H101.189C101.106 5.21576 101.024 5.22966 100.947 5.26076C100.87 5.29185 100.801 5.33933 100.745 5.39992C100.633 5.52246 100.573 5.68409 100.578 5.85011V6.73C100.575 6.81081 100.588 6.89144 100.617 6.96706C100.645 7.04267 100.689 7.11164 100.745 7.16994C100.804 7.22568 100.874 7.26863 100.95 7.29616C101.027 7.32369 101.108 7.33536 101.189 7.33009H103.379V14.69C103.379 17.9 104.812 19.5033 107.679 19.5ZM118.599 19.77C119.678 19.794 120.75 19.5823 121.739 19.1499C122.541 18.8185 123.263 18.321 123.859 17.69C124.27 17.3042 124.535 16.7885 124.609 16.23C124.611 16.1598 124.595 16.0904 124.564 16.0276C124.533 15.9648 124.486 15.9108 124.429 15.8701C124.304 15.7798 124.153 15.7339 123.999 15.74H122.779C122.62 15.7309 122.461 15.7513 122.309 15.8001C122.157 15.9097 122.025 16.0449 121.919 16.2C121.576 16.6239 121.159 16.9829 120.689 17.26C120.044 17.625 119.309 17.8017 118.569 17.77C118.048 17.7879 117.529 17.6822 117.057 17.4614C116.584 17.2407 116.17 16.9113 115.849 16.5C115.159 15.6341 114.769 14.5669 114.739 13.46V13.21H124.359C124.444 13.2132 124.529 13.199 124.608 13.168C124.687 13.137 124.759 13.0901 124.819 13.03C124.878 12.9713 124.925 12.9011 124.956 12.8237C124.986 12.7464 125.001 12.6634 124.999 12.5801V12.0801C125.102 10.1956 124.503 8.33976 123.319 6.87013C122.094 5.66334 120.452 4.97281 118.733 4.94118C117.014 4.90954 115.348 5.53906 114.079 6.69997C112.9 7.99155 112.238 9.67159 112.219 11.4199L112.189 12.3301L112.219 13.26C112.227 15.0254 112.89 16.7251 114.079 18.03C114.67 18.6183 115.377 19.0769 116.156 19.3765C116.934 19.6761 117.766 19.81 118.599 19.77ZM114.739 11.3401V11.26C114.689 10.1259 115.055 9.01253 115.769 8.1299C116.117 7.72512 116.553 7.40559 117.043 7.19582C117.534 6.98604 118.066 6.89165 118.599 6.91994C119.13 6.89668 119.659 6.99341 120.147 7.2029C120.635 7.41239 121.07 7.72921 121.419 8.1299C122.147 9.00662 122.524 10.1216 122.479 11.26V11.3401H114.739ZM41.1 47C42.192 47.0224 43.2782 46.8357 44.3 46.45C45.1052 46.1505 45.8076 45.6265 46.324 44.94C46.7701 44.316 47.0078 43.5671 47.003 42.8001C47.0174 42.3116 46.9267 41.8256 46.7369 41.3753C46.5471 40.9249 46.2627 40.5207 45.903 40.19C44.817 39.353 43.5325 38.8123 42.175 38.6201C41.3066 38.4597 40.4535 38.2254 39.625 37.9199C39.1796 37.7779 38.7786 37.5229 38.461 37.1799C38.2522 36.9006 38.1446 36.5586 38.156 36.21C38.1471 35.9205 38.208 35.6332 38.3334 35.3721C38.4589 35.111 38.6454 34.8839 38.877 34.71C39.4892 34.2998 40.2196 34.103 40.955 34.1499C41.4706 34.1386 41.9848 34.2062 42.48 34.3501C42.819 34.4546 43.1343 34.6245 43.408 34.8501C43.6855 35.106 43.9492 35.3761 44.198 35.6599C44.2521 35.7578 44.3331 35.8382 44.4315 35.8914C44.5299 35.9446 44.6415 35.9684 44.753 35.96H45.806C45.9659 35.9607 46.1199 35.8999 46.236 35.7901C46.2945 35.7393 46.3409 35.6761 46.372 35.6052C46.4031 35.5343 46.4182 35.4573 46.416 35.3799C46.3507 34.8944 46.1321 34.4427 45.792 34.0901C45.2819 33.5091 44.6471 33.051 43.935 32.75C42.997 32.3381 41.9791 32.1399 40.955 32.1699C39.9666 32.1462 38.9857 32.3481 38.087 32.76C37.3506 33.0951 36.7219 33.6283 36.271 34.3001C35.8793 34.8792 35.6671 35.5609 35.661 36.26C35.644 36.7324 35.724 37.2033 35.896 37.6436C36.068 38.0839 36.3283 38.4843 36.661 38.8201C37.6409 39.6207 38.8186 40.1424 40.07 40.3301C40.9765 40.5068 41.8702 40.744 42.745 41.0401C43.2236 41.1896 43.6635 41.4422 44.034 41.78C44.3022 42.0819 44.4415 42.4766 44.422 42.8799C44.4328 43.2021 44.3545 43.521 44.1957 43.8015C44.0369 44.0821 43.8037 44.3134 43.522 44.47C42.7881 44.8713 41.9574 45.0617 41.122 45.02C40.3894 45.0524 39.6603 44.9012 39.001 44.5801C38.4518 44.2724 37.9673 43.8616 37.574 43.3701C37.499 43.2769 37.4099 43.1957 37.31 43.1299C37.2295 43.0862 37.1385 43.0656 37.047 43.0701H35.883C35.7313 43.0713 35.5846 43.1241 35.467 43.22C35.4023 43.2706 35.3509 43.3363 35.3171 43.4111C35.2833 43.486 35.2682 43.5679 35.273 43.6499C35.3403 44.1465 35.5637 44.6088 35.911 44.97C36.447 45.5821 37.1152 46.0642 37.865 46.3799C38.8832 46.8197 39.9853 47.0314 41.094 47H41.1ZM55.763 46.72H57.648C57.7304 46.7235 57.8127 46.7093 57.8891 46.6782C57.9655 46.6472 58.0344 46.6001 58.091 46.5401C58.1473 46.4799 58.1911 46.4091 58.2197 46.3318C58.2484 46.2545 58.2614 46.1724 58.258 46.0901V45.19C58.2648 45.0207 58.2048 44.8555 58.091 44.73C58.0344 44.67 57.9655 44.6229 57.8891 44.5918C57.8127 44.5608 57.7304 44.5465 57.648 44.5501H55.957C55.6564 44.5816 55.3529 44.5323 55.0776 44.4075C54.8024 44.2827 54.5653 44.087 54.391 43.8401C54.0461 43.1927 53.8879 42.4621 53.934 41.73V34.5601H57.371C57.5395 34.5643 57.7032 34.5033 57.828 34.3899C57.8876 34.3357 57.9346 34.2694 57.9657 34.1951C57.9968 34.1208 58.0112 34.0405 58.008 33.96V33.0801C58.0113 32.9954 57.9972 32.9108 57.9664 32.8318C57.9356 32.7528 57.8889 32.6812 57.8291 32.6211C57.7693 32.561 57.6978 32.5138 57.619 32.4827C57.5401 32.4515 57.4557 32.437 57.371 32.44H53.934V27.8601C53.9362 27.7767 53.9212 27.6936 53.8901 27.6162C53.8589 27.5388 53.8123 27.4686 53.753 27.4099C53.6931 27.3503 53.6217 27.3037 53.5431 27.2727C53.4645 27.2418 53.3804 27.2272 53.296 27.23H52.076C51.9936 27.2265 51.9113 27.2407 51.8349 27.2717C51.7585 27.3028 51.6896 27.3499 51.633 27.4099C51.5211 27.5326 51.4616 27.6942 51.467 27.8601V32.44H49.277C49.1944 32.4363 49.112 32.4506 49.0354 32.4817C48.9588 32.5128 48.8898 32.56 48.833 32.6201C48.7198 32.746 48.6602 32.911 48.667 33.0801V33.96C48.6636 34.0392 48.6766 34.1184 48.7052 34.1924C48.7338 34.2664 48.7773 34.3335 48.833 34.3899C48.8917 34.4467 48.9614 34.4911 49.0377 34.5203C49.114 34.5495 49.1953 34.5631 49.277 34.5601H51.467V41.9199C51.467 45.1199 52.9004 46.72 55.767 46.72H55.763ZM66.351 47C67.2951 47.0339 68.2342 46.8491 69.095 46.46C69.8419 46.0846 70.4883 45.5362 70.98 44.8601V46.0901C70.9765 46.1736 70.9907 46.2567 71.0217 46.3342C71.0528 46.4118 71.0999 46.482 71.16 46.5401C71.2198 46.5997 71.2913 46.6463 71.3699 46.6773C71.4485 46.7082 71.5326 46.7228 71.617 46.72H72.809C72.8934 46.7228 72.9775 46.7082 73.0561 46.6773C73.1347 46.6463 73.2061 46.5997 73.266 46.5401C73.3258 46.4818 73.3728 46.4115 73.404 46.334C73.4352 46.2565 73.4498 46.1736 73.447 46.0901V33.0801C73.4501 32.9954 73.4357 32.9109 73.4047 32.832C73.3738 32.7531 73.3269 32.6814 73.2671 32.6214C73.2073 32.5613 73.1357 32.5144 73.0569 32.4832C72.9781 32.452 72.8937 32.4372 72.809 32.44H71.534C71.4493 32.437 71.3649 32.4515 71.2861 32.4827C71.2073 32.5138 71.1357 32.561 71.0759 32.6211C71.0161 32.6812 70.9694 32.7528 70.9386 32.8318C70.9078 32.9108 70.8936 32.9954 70.897 33.0801V40.6799C70.9614 41.7964 70.5884 42.894 69.857 43.74C69.496 44.1176 69.0578 44.4132 68.5724 44.6065C68.0871 44.7997 67.5658 44.8862 67.044 44.8601C64.605 44.8601 63.385 43.4599 63.385 40.6799V33.0801C63.3884 32.9954 63.3742 32.9108 63.3434 32.8318C63.3126 32.7528 63.2658 32.6812 63.2061 32.6211C63.1463 32.561 63.0747 32.5138 62.9959 32.4827C62.9171 32.4515 62.8327 32.437 62.748 32.44H61.472C61.3873 32.437 61.3029 32.4515 61.2241 32.4827C61.1452 32.5138 61.0737 32.561 61.0139 32.6211C60.9541 32.6812 60.9074 32.7528 60.8766 32.8318C60.8458 32.9108 60.8317 32.9954 60.835 33.0801V40.8201C60.7538 42.4421 61.2661 44.0382 62.276 45.3101C62.7847 45.8798 63.4152 46.3276 64.1207 46.6201C64.8261 46.9127 65.5885 47.0425 66.351 47ZM82.87 47C83.7448 47.0494 84.6186 46.8849 85.4155 46.5208C86.2125 46.1566 86.9087 45.6037 87.444 44.9099V46.0901C87.4404 46.1724 87.4532 46.2545 87.4818 46.3318C87.5103 46.4091 87.5538 46.4798 87.61 46.5401C87.6667 46.6002 87.7358 46.6474 87.8124 46.6785C87.889 46.7095 87.9714 46.7236 88.054 46.72H89.246C89.3304 46.7227 89.4145 46.7082 89.4931 46.6773C89.5717 46.6463 89.6431 46.5996 89.703 46.5401C89.7626 46.4817 89.8095 46.4115 89.8405 46.334C89.8714 46.2565 89.8859 46.1735 89.883 46.0901V27.8601C89.8853 27.7768 89.8705 27.6939 89.8395 27.6165C89.8086 27.5391 89.7621 27.4687 89.703 27.4099C89.6431 27.3504 89.5717 27.3037 89.4931 27.2727C89.4145 27.2418 89.3304 27.2273 89.246 27.23H88C87.9156 27.2272 87.8315 27.2418 87.7529 27.2727C87.6743 27.3037 87.6029 27.3503 87.543 27.4099C87.4839 27.4687 87.4374 27.5391 87.4065 27.6165C87.3755 27.6939 87.3607 27.7768 87.363 27.8601V34.2C86.8284 33.5304 86.1425 32.9974 85.3618 32.6445C84.5811 32.2916 83.7278 32.1289 82.872 32.1699C82.0496 32.1155 81.226 32.2576 80.4694 32.5845C79.7128 32.9114 79.045 33.4138 78.521 34.0501C77.5057 35.4115 76.9521 37.0617 76.941 38.76L76.913 39.5801L76.941 40.4099C76.9456 42.1101 77.4945 43.7641 78.507 45.1299C79.0327 45.7671 79.7032 46.2694 80.4625 46.5947C81.2219 46.92 82.048 47.059 82.872 47H82.87ZM83.397 44.8601C80.773 44.8601 79.461 43.1001 79.461 39.5801L79.489 38.7901C79.486 37.6336 79.8347 36.5036 80.489 35.5501C80.8354 35.1208 81.2819 34.7831 81.7893 34.5669C82.2967 34.3507 82.8495 34.2626 83.399 34.3101C83.9435 34.2777 84.4882 34.3708 84.991 34.5823C85.4938 34.7938 85.9414 35.1182 86.299 35.53C86.9736 36.3475 87.3499 37.3702 87.366 38.4299C87.384 38.6299 87.394 38.99 87.394 39.5C87.394 40.01 87.384 40.3401 87.366 40.5401C87.3382 41.638 86.9702 42.7002 86.313 43.5801C85.967 44.0125 85.5216 44.3545 85.0147 44.5774C84.5078 44.8003 83.9545 44.8974 83.402 44.8601H83.397ZM94.484 29.75H96.12C96.2924 29.7525 96.4599 29.6922 96.591 29.5801C96.6545 29.5218 96.7046 29.4505 96.7381 29.3711C96.7716 29.2917 96.7876 29.2062 96.785 29.1201V27.69C96.7859 27.6041 96.7691 27.5191 96.7358 27.44C96.7024 27.3608 96.6531 27.2893 96.591 27.23C96.5297 27.1677 96.4563 27.1186 96.3752 27.086C96.2942 27.0533 96.2073 27.0377 96.12 27.0401H94.484C94.3986 27.0367 94.3135 27.0519 94.2346 27.0847C94.1557 27.1175 94.0848 27.1671 94.027 27.23C93.9084 27.3534 93.8437 27.5188 93.847 27.69V29.1201C93.8435 29.2051 93.8577 29.2897 93.8887 29.3689C93.9197 29.4481 93.9668 29.5201 94.027 29.5801C94.1516 29.6936 94.3154 29.7545 94.484 29.75ZM94.706 46.72H95.926C96.0104 46.7226 96.0945 46.708 96.173 46.677C96.2516 46.6461 96.323 46.5995 96.383 46.5401C96.4426 46.4817 96.4895 46.4115 96.5204 46.334C96.5514 46.2565 96.5659 46.1735 96.563 46.0901V33.0801C96.5663 32.9954 96.5522 32.9108 96.5214 32.8318C96.4906 32.7528 96.4439 32.6812 96.3841 32.6211C96.3243 32.561 96.2528 32.5138 96.174 32.4827C96.0951 32.4515 96.0107 32.437 95.926 32.44H94.7C94.6153 32.4372 94.5309 32.452 94.4521 32.4832C94.3733 32.5144 94.3018 32.5613 94.2419 32.6214C94.1821 32.6814 94.1353 32.7531 94.1043 32.832C94.0734 32.9109 94.0589 32.9954 94.062 33.0801V46.0901C94.0587 46.1736 94.0731 46.2569 94.1043 46.3345C94.1355 46.412 94.1827 46.4821 94.243 46.5401C94.3028 46.5997 94.3743 46.6463 94.4529 46.6773C94.5315 46.7082 94.6156 46.7228 94.7 46.72H94.706ZM106.573 47C107.43 47.0543 108.288 46.9314 109.095 46.6389C109.902 46.3464 110.64 45.8906 111.263 45.3001C112.404 44.0646 113.033 42.4418 113.023 40.76C113.063 40.3679 113.083 39.9742 113.083 39.5801C113.083 39.2001 113.063 38.8099 113.023 38.3999C113.029 36.7182 112.392 35.0979 111.243 33.8701C109.935 32.772 108.281 32.1699 106.573 32.1699C104.865 32.1699 103.211 32.772 101.903 33.8701C100.746 35.094 100.104 36.7158 100.111 38.3999L100.083 39.5801L100.111 40.76C100.102 42.4419 100.732 44.0646 101.873 45.3001C102.497 45.8914 103.237 46.3476 104.046 46.6402C104.854 46.9327 105.715 47.0551 106.573 47ZM106.573 44.94C106.051 44.9656 105.53 44.8799 105.044 44.6885C104.557 44.4971 104.117 44.2046 103.753 43.8301C103.008 42.932 102.611 41.7963 102.633 40.6299L102.603 39.5801L102.633 38.5401C102.609 37.3734 103.007 36.2373 103.753 35.3401C104.517 34.6267 105.523 34.2298 106.568 34.2298C107.613 34.2298 108.619 34.6267 109.383 35.3401C110.133 36.235 110.531 37.3727 110.503 38.5401C110.523 38.7201 110.533 39.0701 110.533 39.5801C110.533 40.0901 110.523 40.4399 110.503 40.6299C110.53 41.797 110.132 42.9343 109.383 43.8301C109.021 44.2044 108.582 44.4971 108.098 44.6885C107.613 44.8799 107.093 44.9655 106.573 44.94ZM22.265 0.0100248C18.445 0.0100248 17.349 3.40993 14.247 3.40993C11.382 3.40993 10.303 0.0100248 6.38098 0.0100248H6.35999C5.52937 0.00541577 4.70598 0.164432 3.93683 0.478042C3.16768 0.791652 2.46784 1.25382 1.87726 1.83791C1.28668 2.42199 0.816915 3.11646 0.494812 3.8821C0.172709 4.64773 0.00458357 5.46945 0 6.30006C0 10.0901 3.43201 11.0301 3.43201 14.1001C3.43201 17.1701 0 18.2601 0 22.0501C0 23.7353 0.669417 25.3514 1.86102 26.543C3.05263 27.7346 4.66882 28.4041 6.354 28.4041C8.03919 28.4041 9.65538 27.7346 10.847 26.543C12.0386 25.3514 12.708 23.7353 12.708 22.0501C12.708 18.2601 9.27502 17.1801 9.27502 14.1001C9.33562 12.8088 9.8802 11.5874 10.8004 10.6795C11.7206 9.77148 12.949 9.24328 14.241 9.19997C17.341 9.19997 18.441 12.6001 22.259 12.6001C23.1067 12.6341 23.9527 12.4965 24.746 12.1956C25.5393 11.8946 26.2636 11.4364 26.8755 10.8486C27.4874 10.2609 27.9743 9.55568 28.307 8.77516C28.6397 7.99465 28.8113 7.15511 28.8115 6.30666C28.8117 5.4582 28.6405 4.61834 28.3082 3.83766C27.9759 3.05699 27.4893 2.35147 26.8777 1.76344C26.266 1.17542 25.5419 0.717099 24.7488 0.415786C23.9556 0.114474 23.1098 -0.0235691 22.262 0.0100248H22.265Z" fill="black"/>
</svg>
