<svg width="140" height="46" viewBox="0 0 140 46" fill="none" xmlns="http://www.w3.org/2000/svg">
<path fill-rule="evenodd" clip-rule="evenodd" d="M58.2 13.76H60.03V9.87012H63.9399V8.12988H60.03V5.77002H64.38V4.03003H58.2V13.76ZM65.48 13.76H67.27V10.3101C67.2485 9.79079 67.4114 9.28072 67.73 8.87012C67.8797 8.68448 68.0706 8.5362 68.2876 8.43726C68.5046 8.33831 68.7417 8.29136 68.98 8.30005C69.1617 8.29912 69.3429 8.31931 69.52 8.36011C69.7301 8.41565 69.9371 8.48236 70.14 8.56006V6.77002C69.8611 6.67024 69.5662 6.62264 69.27 6.62988C68.8494 6.62318 68.4347 6.73035 68.0699 6.93994C67.735 7.13268 67.4586 7.41266 67.27 7.75H67.16V6.83008H65.48V13.76ZM73.2 13.98C73.6087 13.9922 74.0142 13.9029 74.38 13.72C74.7027 13.5651 74.9864 13.3396 75.21 13.0601H75.3101V13.76H77.0699V9.48999C77.0963 9.09431 77.0357 8.69761 76.8923 8.32788C76.7489 7.95816 76.5263 7.6245 76.24 7.3501C75.5521 6.81351 74.6903 6.54998 73.8199 6.61011C73.2447 6.60621 72.6753 6.72541 72.15 6.95996C71.6563 7.1926 71.2245 7.53869 70.89 7.96997L72.03 8.87012C72.2351 8.61816 72.4951 8.41628 72.79 8.28003C73.0812 8.13123 73.403 8.05249 73.73 8.05005C74.1472 8.02772 74.5587 8.15528 74.89 8.40991C75.0264 8.52036 75.1353 8.66093 75.2081 8.82056C75.281 8.98019 75.3159 9.1547 75.3101 9.33008V9.62988C74.7263 9.40762 74.1044 9.30248 73.48 9.32007C72.9922 9.31231 72.5084 9.40776 72.0601 9.6001C71.6548 9.77598 71.3054 10.0594 71.05 10.4199C70.8044 10.779 70.6752 11.2049 70.6801 11.6399C70.6685 11.9577 70.7259 12.2744 70.8485 12.5679C70.9711 12.8614 71.1558 13.1249 71.39 13.3401C71.8888 13.7779 72.5368 14.0069 73.2 13.98ZM73.63 12.5901C73.3208 12.615 73.0136 12.5221 72.77 12.3301C72.6725 12.2441 72.5951 12.1375 72.5432 12.0183C72.4914 11.8991 72.4663 11.7699 72.47 11.6399C72.47 10.9499 72.93 10.6101 73.86 10.6101C74.3621 10.6087 74.858 10.7214 75.3101 10.9399C75.3146 11.37 75.1534 11.7856 74.86 12.1001C74.7018 12.2648 74.5103 12.3938 74.2981 12.4783C74.0859 12.5628 73.8581 12.6009 73.63 12.5901ZM78.72 13.76H80.5V10.27C80.4789 9.75681 80.6188 9.2499 80.9 8.82007C81.0165 8.64691 81.1745 8.50577 81.3597 8.40967C81.545 8.31356 81.7513 8.26552 81.96 8.27002C82.1277 8.26143 82.2954 8.2881 82.4521 8.34839C82.6089 8.40868 82.7513 8.50135 82.87 8.62012C83.0982 8.90549 83.2121 9.26519 83.1899 9.62988V13.76H84.97V10.27C84.9474 9.7552 85.0912 9.24685 85.38 8.82007C85.5059 8.64458 85.6729 8.50263 85.8665 8.40674C86.06 8.31085 86.2741 8.26389 86.49 8.27002C86.6502 8.26213 86.8102 8.28939 86.9587 8.34985C87.1073 8.41031 87.2408 8.50261 87.35 8.62012C87.567 8.91033 87.6735 9.26824 87.65 9.62988V13.76H89.42V9.30005C89.4614 8.5927 89.2407 7.89495 88.8 7.34009C88.5754 7.08941 88.2964 6.89336 87.9845 6.76685C87.6726 6.64034 87.3358 6.58674 87 6.61011C86.5114 6.59653 86.028 6.71376 85.6 6.94995C85.2215 7.16561 84.9021 7.47144 84.67 7.84009C84.5107 7.47101 84.2373 7.16251 83.89 6.95996C83.5061 6.72207 83.0615 6.60064 82.61 6.61011C82.1826 6.60641 81.7607 6.70568 81.38 6.8999C81.0228 7.08648 80.7197 7.36207 80.5 7.69995H80.39V6.83008H78.72V13.76ZM94.38 13.98C95.0383 14.0091 95.6914 13.8507 96.2632 13.5232C96.835 13.1957 97.302 12.7124 97.61 12.1299L96.16 11.4199C95.9888 11.7302 95.7341 11.9865 95.4248 12.1597C95.1156 12.3328 94.7641 12.416 94.41 12.3999C93.9539 12.4113 93.5081 12.2628 93.15 11.98C92.7816 11.6562 92.5464 11.2072 92.49 10.72H97.7C97.8122 9.90852 97.6872 9.08204 97.34 8.34009C97.0795 7.8103 96.6693 7.36866 96.16 7.07007C95.5959 6.75328 94.9569 6.59441 94.3101 6.61011C93.6686 6.60346 93.038 6.77667 92.49 7.11011C91.9476 7.43858 91.505 7.90866 91.21 8.46997C90.9014 9.04139 90.74 9.68069 90.74 10.3301C90.74 10.9795 90.9014 11.6185 91.21 12.1899C91.5171 12.7385 91.9662 13.1945 92.51 13.51C93.0824 13.8253 93.7266 13.9871 94.38 13.98ZM92.5699 9.44995C92.6828 9.05433 92.913 8.70219 93.23 8.43994C93.5404 8.18859 93.9308 8.05739 94.33 8.07007C94.6332 8.06352 94.933 8.13585 95.2 8.28003C95.438 8.40438 95.641 8.58668 95.79 8.81006C95.9217 9.00029 96.0041 9.22007 96.03 9.44995H92.5699ZM102.51 13.98C103.178 13.9899 103.836 13.8244 104.42 13.5C104.971 13.1906 105.425 12.7334 105.73 12.1799C106.039 11.6013 106.2 10.9558 106.2 10.3C106.2 9.64431 106.039 8.99852 105.73 8.41992C105.422 7.86571 104.97 7.40604 104.42 7.09009C103.831 6.77496 103.173 6.61011 102.505 6.61011C101.837 6.61011 101.179 6.77496 100.59 7.09009C100.04 7.40852 99.5843 7.86737 99.27 8.41992C98.9678 9.00051 98.8101 9.64552 98.8101 10.3C98.8101 10.9546 98.9678 11.5993 99.27 12.1799C99.5818 12.7318 100.038 13.1882 100.59 13.5C101.176 13.8268 101.839 13.9924 102.51 13.98ZM102.51 12.3401C102.177 12.3404 101.85 12.2542 101.56 12.0901C101.263 11.9229 101.017 11.6771 100.85 11.3799C100.675 11.047 100.586 10.676 100.59 10.3C100.583 9.92379 100.673 9.55199 100.85 9.21997C101.106 8.78429 101.523 8.46688 102.012 8.33594C102.5 8.205 103.02 8.27106 103.46 8.52002C103.754 8.68381 103.996 8.92615 104.16 9.21997C104.337 9.55199 104.427 9.92379 104.42 10.3C104.428 10.6764 104.338 11.0483 104.16 11.3799C103.997 11.6765 103.754 11.9224 103.46 12.0901C103.17 12.253 102.843 12.3391 102.51 12.3401ZM57.28 27.8301H59.3101L60.13 25.51H63.86L64.6801 27.8301H66.71L63.04 18.1001H60.9301L57.28 27.8301ZM60.72 23.8201L61.59 21.3799L61.9399 20.21H62.05L62.4 21.3799L63.26 23.8201H60.72ZM67.78 27.8301H69.5699V24.3799C69.5484 23.8606 69.7114 23.3505 70.03 22.9399C70.1797 22.7543 70.3707 22.6063 70.5876 22.5073C70.8046 22.4084 71.0417 22.3614 71.28 22.3701C71.4617 22.3692 71.6429 22.3891 71.8199 22.4299C72.0305 22.484 72.2375 22.5507 72.4399 22.6299V20.8401C72.1598 20.7451 71.8657 20.6976 71.5699 20.7C71.1493 20.6933 70.7347 20.8004 70.37 21.01C70.035 21.2027 69.7585 21.4827 69.5699 21.8201H69.46V20.8999H67.78V27.8301ZM76.46 28.05C77.15 28.0669 77.8316 27.894 78.4301 27.55C78.9864 27.2121 79.4314 26.7182 79.71 26.1299L78.09 25.4299C77.9469 25.7371 77.7154 25.9946 77.4249 26.1692C77.1345 26.3438 76.7984 26.4276 76.46 26.4099C76.2096 26.4174 75.9606 26.3715 75.7295 26.2749C75.4984 26.1783 75.2906 26.0335 75.12 25.8501C74.7564 25.4451 74.5661 24.9138 74.59 24.3701C74.5661 23.8294 74.7566 23.3009 75.12 22.8999C75.2906 22.7165 75.4984 22.5717 75.7295 22.4751C75.9606 22.3785 76.2096 22.3326 76.46 22.3401C76.7827 22.3163 77.1048 22.3928 77.3823 22.5593C77.6598 22.7258 77.8791 22.9741 78.01 23.27L79.64 22.5901C79.414 21.9991 78.9945 21.502 78.45 21.1799C77.8442 20.836 77.1563 20.6632 76.46 20.6799C75.8016 20.6688 75.1524 20.8345 74.58 21.1599C74.0322 21.4659 73.5818 21.9199 73.28 22.47C72.9713 23.0557 72.8099 23.708 72.8099 24.3701C72.8099 25.0322 72.9713 25.6843 73.28 26.27C73.579 26.8222 74.0301 27.2769 74.58 27.5801C75.1532 27.9023 75.8025 28.0646 76.46 28.05ZM80.99 27.8301H82.78V24.3101C82.765 23.8056 82.9238 23.3111 83.23 22.9099C83.367 22.7302 83.5442 22.5851 83.7473 22.4861C83.9505 22.3871 84.174 22.3372 84.4 22.3401C84.577 22.3311 84.7539 22.3594 84.9193 22.4231C85.0847 22.4868 85.2348 22.5845 85.36 22.71C85.4859 22.8488 85.5827 23.0115 85.6445 23.1885C85.7064 23.3654 85.732 23.5529 85.72 23.74V27.8301H87.5V23.52C87.5453 22.7672 87.3061 22.0248 86.83 21.4399C86.5822 21.1786 86.28 20.9751 85.9447 20.8438C85.6094 20.7124 85.2494 20.6564 84.89 20.6799C84.4582 20.6759 84.0322 20.779 83.65 20.98C83.2925 21.1578 82.9914 21.4313 82.78 21.77H82.67L82.78 20.5601V18.1001H80.99V27.8301ZM90.2 20.1399C90.351 20.1413 90.5007 20.1119 90.64 20.0535C90.7793 19.995 90.9052 19.9089 91.01 19.8C91.1168 19.6922 91.201 19.5641 91.2577 19.4233C91.3144 19.2825 91.3423 19.1317 91.34 18.98C91.3423 18.8297 91.3143 18.6804 91.2576 18.5413C91.2009 18.4021 91.1167 18.2758 91.01 18.1699C90.9047 18.0625 90.7785 17.9779 90.6392 17.9211C90.4998 17.8644 90.3504 17.8368 90.2 17.8401C90.0482 17.8377 89.8975 17.8657 89.7567 17.9224C89.6159 17.979 89.4878 18.0631 89.38 18.1699C89.2701 18.2739 89.1832 18.3996 89.1246 18.5391C89.0661 18.6785 89.0373 18.8287 89.04 18.98C89.0372 19.1327 89.066 19.2844 89.1245 19.4255C89.183 19.5666 89.27 19.6941 89.38 19.8C89.4873 19.9082 89.6151 19.9939 89.7559 20.0522C89.8966 20.1106 90.0476 20.1404 90.2 20.1399ZM89.3 27.8301H91.08V20.8999H89.3V27.8301ZM95.9 27.9399C96.3245 27.9459 96.7459 27.8677 97.14 27.71V25.97C97.0007 26.0599 96.8533 26.1368 96.7 26.2C96.5629 26.2524 96.4166 26.2763 96.27 26.27C96.1522 26.2832 96.0328 26.2702 95.9205 26.2322C95.8082 26.1942 95.7056 26.1321 95.62 26.05C95.5318 25.9458 95.466 25.8246 95.4264 25.6938C95.3868 25.5631 95.3744 25.4257 95.39 25.29V22.4199H97.09V20.8999H95.39V18.9399H93.6V20.8999H92.39V22.4199H93.6V25.6201C93.5816 25.9385 93.6289 26.2573 93.739 26.5566C93.8491 26.856 94.0197 27.1295 94.24 27.3601C94.4437 27.5519 94.6856 27.6984 94.95 27.79C95.2561 27.8924 95.5772 27.943 95.9 27.9399ZM101.58 28.05C102.238 28.0805 102.892 27.9226 103.464 27.595C104.036 27.2673 104.503 26.7834 104.81 26.2L103.37 25.5C103.195 25.788 102.956 26.0312 102.67 26.21C102.347 26.3928 101.981 26.4828 101.61 26.47C101.154 26.4814 100.708 26.3329 100.35 26.05C99.9816 25.7262 99.7464 25.2773 99.6899 24.79H104.91C104.934 24.5909 104.947 24.3905 104.95 24.1899C104.955 23.5738 104.818 22.9647 104.55 22.4099C104.287 21.8822 103.877 21.4413 103.37 21.1399C102.805 20.8254 102.167 20.6667 101.52 20.6799C100.875 20.6733 100.242 20.8464 99.6899 21.1799C99.1522 21.5141 98.7111 21.983 98.41 22.54C98.1016 23.1038 97.9431 23.7373 97.95 24.3799C97.9354 25.0373 98.0979 25.6867 98.42 26.26C98.7214 26.8129 99.1717 27.2703 99.72 27.5801C100.288 27.8965 100.93 28.0585 101.58 28.05ZM99.77 23.52C99.8905 23.1279 100.119 22.7778 100.43 22.51C100.741 22.2601 101.131 22.1288 101.53 22.1399C101.837 22.1334 102.14 22.2059 102.41 22.3501C102.645 22.4747 102.845 22.6569 102.99 22.8799C103.122 23.0701 103.204 23.2901 103.23 23.52H99.77ZM109.66 28.05C110.35 28.0669 111.032 27.894 111.63 27.55C112.186 27.2121 112.631 26.7182 112.91 26.1299L111.29 25.4299C111.147 25.7371 110.915 25.9946 110.625 26.1692C110.334 26.3438 109.998 26.4276 109.66 26.4099C109.41 26.4174 109.161 26.3715 108.929 26.2749C108.698 26.1783 108.491 26.0335 108.32 25.8501C107.956 25.4451 107.766 24.9138 107.79 24.3701C107.766 23.8294 107.957 23.3009 108.32 22.8999C108.491 22.7165 108.698 22.5717 108.929 22.4751C109.161 22.3785 109.41 22.3326 109.66 22.3401C109.983 22.3163 110.305 22.3928 110.582 22.5593C110.86 22.7258 111.079 22.9741 111.21 23.27L112.85 22.5901C112.617 22.0002 112.195 21.5041 111.65 21.1799C111.044 20.836 110.356 20.6632 109.66 20.6799C109.002 20.6688 108.352 20.8345 107.78 21.1599C107.234 21.4687 106.785 21.9221 106.48 22.47C106.171 23.0557 106.01 23.708 106.01 24.3701C106.01 25.0322 106.171 25.6843 106.48 26.27C106.782 26.8201 107.232 27.2741 107.78 27.5801C108.353 27.9023 109.003 28.0646 109.66 28.05ZM117.15 27.9399C117.574 27.945 117.996 27.8668 118.39 27.71V25.97C118.251 26.0599 118.103 26.1368 117.95 26.2C117.813 26.2515 117.667 26.2754 117.52 26.27C117.401 26.283 117.28 26.2701 117.166 26.2322C117.052 26.1942 116.948 26.1321 116.86 26.05C116.686 25.8368 116.604 25.5638 116.63 25.29V22.4199H118.33V20.8999H116.63V18.9399H114.85V20.8999H113.64V22.4199H114.85V25.6201C114.829 25.9388 114.875 26.2582 114.986 26.5579C115.096 26.8575 115.268 27.1308 115.49 27.3601C115.692 27.554 115.934 27.7008 116.2 27.79C116.506 27.8932 116.827 27.9438 117.15 27.9399ZM122.32 28.05C122.754 28.0537 123.182 27.9543 123.57 27.76C123.931 27.5792 124.236 27.3024 124.45 26.96H124.56V27.8301H126.23V20.8999H124.45V24.4299C124.472 24.9415 124.312 25.4444 124 25.8501C123.856 26.031 123.671 26.1757 123.461 26.2729C123.251 26.3702 123.021 26.417 122.79 26.4099C122.619 26.4159 122.45 26.383 122.294 26.3137C122.138 26.2444 122 26.1406 121.89 26.01C121.646 25.6932 121.526 25.2988 121.55 24.8999V20.8999H119.76V25.1101C119.713 25.8892 119.947 26.6593 120.42 27.28C120.658 27.5432 120.953 27.749 121.282 27.8823C121.611 28.0157 121.966 28.0731 122.32 28.05ZM127.97 27.8301H129.76V24.3799C129.738 23.8606 129.901 23.3505 130.22 22.9399C130.37 22.7543 130.561 22.6063 130.778 22.5073C130.995 22.4084 131.232 22.3614 131.47 22.3701C131.652 22.3686 131.833 22.3886 132.01 22.4299C132.221 22.484 132.428 22.5507 132.63 22.6299V20.8401C132.35 20.7451 132.056 20.6976 131.76 20.7C131.34 20.6958 130.926 20.8028 130.56 21.01C130.225 21.2027 129.949 21.4827 129.76 21.8201H129.65V20.8999H127.97V27.8301ZM136.64 28.05C137.297 28.0802 137.949 27.9222 138.52 27.5945C139.09 27.2668 139.555 26.7829 139.86 26.2L138.42 25.5C138.248 25.7902 138.008 26.034 137.72 26.21C137.397 26.3928 137.031 26.4828 136.66 26.47C136.204 26.4814 135.758 26.3329 135.4 26.05C135.032 25.7262 134.796 25.2773 134.74 24.79H139.96C140.072 23.9786 139.947 23.1519 139.6 22.4099C139.34 21.8801 138.929 21.4385 138.42 21.1399C137.855 20.8254 137.216 20.6667 136.57 20.6799C135.926 20.6746 135.292 20.8476 134.74 21.1799C134.202 21.5141 133.761 21.983 133.46 22.54C133.156 23.1133 132.998 23.7526 133 24.4014C133.002 25.0501 133.163 25.6884 133.47 26.26C133.774 26.8108 134.224 27.2674 134.77 27.5801C135.342 27.8965 135.986 28.0584 136.64 28.05ZM134.82 23.52C134.94 23.1253 135.173 22.7743 135.49 22.51C135.797 22.2588 136.184 22.1272 136.58 22.1399C136.887 22.1322 137.19 22.2047 137.46 22.3501C137.696 22.4772 137.898 22.6587 138.05 22.8799C138.183 23.0686 138.262 23.2899 138.28 23.52H134.82ZM58.2 41.8999H61.49C62.4138 41.9233 63.3287 41.7136 64.15 41.29C64.8816 40.8981 65.4854 40.3047 65.89 39.5801C66.291 38.7916 66.5 37.9195 66.5 37.0349C66.5 36.1504 66.291 35.2784 65.89 34.49C65.4854 33.7653 64.8816 33.1719 64.15 32.78C63.3287 32.3565 62.4138 32.1466 61.49 32.1699H58.2V41.8999ZM60.03 40.1599V33.9099H61.41C61.8477 33.8795 62.2869 33.9384 62.7012 34.0828C63.1154 34.2272 63.496 34.4542 63.8199 34.75C64.3562 35.3926 64.65 36.2031 64.65 37.04C64.65 37.877 64.3562 38.6875 63.8199 39.3301C63.4953 39.6243 63.1143 39.8495 62.7001 39.9922C62.2858 40.1349 61.847 40.1919 61.41 40.1599H60.03ZM68.48 35.79L69.66 34.03C69.7642 33.8908 69.8515 33.7398 69.92 33.5801C69.9781 33.4374 70.0053 33.2838 70 33.1299C70.0029 32.9757 69.9742 32.8227 69.9158 32.6799C69.8573 32.5372 69.7703 32.4079 69.66 32.3C69.5538 32.1869 69.4251 32.0974 69.2821 32.0371C69.1391 31.9768 68.9851 31.947 68.83 31.95C68.6738 31.9498 68.5191 31.9807 68.3749 32.0408C68.2307 32.1008 68.0999 32.1891 67.99 32.3C67.8798 32.4079 67.7927 32.5372 67.7343 32.6799C67.6758 32.8227 67.6472 32.9757 67.65 33.1299C67.6472 33.3652 67.717 33.5958 67.85 33.79C67.9799 33.9719 68.1609 34.111 68.37 34.1899L67.67 35.26L68.48 35.79ZM72.13 34.21C72.2811 34.2114 72.4308 34.182 72.5701 34.1235C72.7093 34.0651 72.8352 33.9789 72.9399 33.8701C73.1517 33.6517 73.2701 33.3592 73.2701 33.0549C73.2701 32.7507 73.1517 32.4585 72.9399 32.24C72.8347 32.1325 72.7085 32.0477 72.5692 31.991C72.4299 31.9342 72.2804 31.9066 72.13 31.9099C71.9782 31.9076 71.8276 31.9355 71.6868 31.9922C71.546 32.0489 71.4179 32.1332 71.3101 32.24C71.2024 32.3466 71.1168 32.4736 71.0585 32.6135C71.0001 32.7534 70.9701 32.9034 70.9701 33.0549C70.9701 33.2065 71.0001 33.3567 71.0585 33.4966C71.1168 33.6365 71.2024 33.7635 71.3101 33.8701C71.4174 33.9783 71.5451 34.0639 71.6859 34.1223C71.8267 34.1807 71.9776 34.2104 72.13 34.21ZM71.23 41.8999H73.01V34.97H71.23V41.8999ZM74.88 41.8999H76.66V38.3701C76.643 37.867 76.7981 37.3729 77.1 36.97C77.2376 36.7916 77.4152 36.648 77.6184 36.5508C77.8216 36.4535 78.0448 36.4052 78.27 36.4099C78.4458 36.3981 78.6221 36.4251 78.7863 36.489C78.9504 36.553 79.0985 36.6524 79.22 36.78C79.4633 37.0659 79.5854 37.4355 79.5601 37.8101V41.8999H81.35V37.5901C81.392 36.8393 81.1572 36.0992 80.6899 35.51C80.4496 35.2502 80.1543 35.0472 79.8257 34.9158C79.497 34.7843 79.1433 34.7276 78.79 34.75C78.3596 34.7474 77.9347 34.8469 77.55 35.04C77.1861 35.2207 76.8783 35.4974 76.66 35.8401H76.55V34.97H74.88V41.8999ZM85.72 42.01C86.1444 42.015 86.5656 41.9369 86.96 41.78V40.04C86.8185 40.1323 86.6677 40.2094 86.51 40.27C86.3765 40.3225 86.2333 40.3464 86.09 40.3401C85.9706 40.3531 85.8499 40.34 85.736 40.302C85.6221 40.264 85.5177 40.2021 85.4301 40.1201C85.2564 39.9069 85.1736 39.6338 85.2 39.3601V36.49H86.9V34.97H85.2V33.01H83.42V34.97H82.2V36.49H83.42V39.6899C83.3993 40.0086 83.4456 40.328 83.5558 40.6277C83.666 40.9274 83.8378 41.2006 84.0601 41.4299C84.2621 41.6238 84.5046 41.7709 84.77 41.8601C85.076 41.9632 85.3971 42.0138 85.72 42.01ZM91.4 42.1201C92.0572 42.1503 92.7093 41.992 93.2797 41.6643C93.8501 41.3366 94.3151 40.8529 94.62 40.27L93.1801 39.5701C93.0081 39.8603 92.7678 40.104 92.48 40.28C92.1574 40.4629 91.7906 40.5528 91.42 40.54C90.9639 40.5515 90.5181 40.4029 90.16 40.1201C89.7952 39.7935 89.5608 39.346 89.5 38.8601H94.72C94.8322 38.0487 94.7072 37.2219 94.36 36.48C94.0996 35.9502 93.6893 35.5086 93.1801 35.21C92.6155 34.8943 91.9766 34.7355 91.33 34.75C90.684 34.7433 90.0494 34.9201 89.5 35.26C88.9605 35.5877 88.5185 36.054 88.22 36.6101C87.9161 37.1757 87.758 37.8079 87.76 38.45C87.7504 39.1068 87.9124 39.755 88.23 40.3301C88.5342 40.8808 88.984 41.3373 89.53 41.6499C90.1024 41.9652 90.7466 42.1273 91.4 42.1201ZM89.59 37.5901C89.7029 37.1945 89.933 36.8423 90.25 36.5801C90.5574 36.3303 90.9441 36.1989 91.34 36.21C91.6466 36.2022 91.9499 36.2746 92.22 36.4199C92.4559 36.5473 92.6582 36.729 92.8101 36.95C92.9417 37.1402 93.0242 37.3602 93.05 37.5901H89.59ZM96.14 41.8999H97.92V38.45C97.8985 37.9307 98.0614 37.4206 98.38 37.01C98.5311 36.8233 98.7236 36.6747 98.9424 36.5757C99.1612 36.4767 99.4001 36.4301 99.64 36.4399C99.8185 36.4384 99.9965 36.4586 100.17 36.5C100.381 36.5541 100.588 36.6208 100.79 36.7V34.9099C100.51 34.8149 100.216 34.7677 99.92 34.77C99.4983 34.7646 99.0831 34.8754 98.72 35.0901C98.3835 35.2763 98.1063 35.5534 97.92 35.8899H97.8101V34.97H96.14V41.8999ZM102.96 34.21C103.111 34.2114 103.261 34.182 103.4 34.1235C103.539 34.0651 103.665 33.9789 103.77 33.8701C103.982 33.6517 104.1 33.3592 104.1 33.0549C104.1 32.7507 103.982 32.4585 103.77 32.24C103.665 32.1325 103.538 32.0477 103.399 31.991C103.26 31.9342 103.11 31.9066 102.96 31.9099C102.808 31.9076 102.658 31.9355 102.517 31.9922C102.376 32.0489 102.248 32.1332 102.14 32.24C102.032 32.3466 101.947 32.4736 101.888 32.6135C101.83 32.7534 101.8 32.9034 101.8 33.0549C101.8 33.2065 101.83 33.3567 101.888 33.4966C101.947 33.6365 102.032 33.7635 102.14 33.8701C102.247 33.9783 102.375 34.0639 102.516 34.1223C102.657 34.1807 102.808 34.2104 102.96 34.21ZM102.06 41.8999H103.84V34.97H102.06V41.8999ZM108.9 42.1201C109.557 42.1503 110.209 41.992 110.78 41.6643C111.35 41.3366 111.815 40.8529 112.12 40.27L110.68 39.5701C110.508 39.8603 110.268 40.104 109.98 40.28C109.657 40.4629 109.291 40.5528 108.92 40.54C108.464 40.5515 108.018 40.4029 107.66 40.1201C107.292 39.7963 107.056 39.3473 107 38.8601H112.22C112.332 38.0487 112.207 37.2219 111.86 36.48C111.6 35.9502 111.189 35.5086 110.68 35.21C110.115 34.8943 109.477 34.7355 108.83 34.75C108.184 34.7433 107.549 34.9201 107 35.26C106.461 35.5877 106.019 36.054 105.72 36.6101C105.416 37.1834 105.258 37.8224 105.26 38.4712C105.262 39.1199 105.423 39.7584 105.73 40.3301C106.034 40.8808 106.484 41.3373 107.03 41.6499C107.602 41.9663 108.246 42.1285 108.9 42.1201ZM107.08 37.5901C107.2 37.1954 107.433 36.8444 107.75 36.5801C108.057 36.3289 108.444 36.1973 108.84 36.21C109.147 36.2022 109.45 36.2746 109.72 36.4199C109.954 36.5501 110.156 36.7313 110.31 36.95C110.443 37.1386 110.522 37.3599 110.54 37.5901H107.08ZM116.14 42.1201C116.574 42.1227 117.002 42.0233 117.39 41.8301C117.749 41.6463 118.053 41.3701 118.27 41.03H118.37V41.8999H120.05V34.97H118.27V38.51C118.29 39.0183 118.131 39.5173 117.82 39.9199C117.674 40.1016 117.488 40.2468 117.276 40.344C117.064 40.4412 116.833 40.4878 116.6 40.48C116.431 40.4849 116.263 40.4516 116.109 40.3823C115.955 40.313 115.818 40.2097 115.71 40.0801C115.463 39.7645 115.339 39.3701 115.36 38.97V34.97H113.58V39.1899C113.536 39.964 113.766 40.729 114.23 41.3501C114.471 41.6126 114.767 41.818 115.098 41.9512C115.428 42.0844 115.784 42.1421 116.14 42.1201ZM121.79 41.8999H123.58V38.45C123.558 37.9307 123.721 37.4206 124.04 37.01C124.19 36.8244 124.381 36.6761 124.598 36.5771C124.815 36.4782 125.052 36.4312 125.29 36.4399C125.472 36.439 125.653 36.4592 125.83 36.5C126.04 36.5555 126.247 36.6223 126.45 36.7V34.9099C126.17 34.8149 125.876 34.7677 125.58 34.77C125.158 34.7619 124.742 34.8729 124.38 35.0901C124.044 35.2763 123.766 35.5534 123.58 35.8899H123.47V34.97H121.79V41.8999ZM30.71 0H0V30.6699L15.36 46H46.0699V15.3301L30.71 0ZM30.71 30.6699H15.36V15.3301H30.71V30.6699Z" fill="black"/>
</svg>
