<svg width="117" height="60" viewBox="0 0 117 60" fill="none" xmlns="http://www.w3.org/2000/svg">
<path fill-rule="evenodd" clip-rule="evenodd" d="M18.6111 44.3001V43.8601C17.9124 43.9001 16.9654 43.9199 15.7701 43.9199H14.7111L9.90405 56.8201L4.98804 43.8601C4.50004 43.9001 3.86272 43.9199 3.07605 43.9199C2.18005 43.9199 1.48806 43.9001 1.00006 43.8601V44.3001C1.39806 44.3067 1.79331 44.3672 2.17505 44.48C2.29218 44.5234 2.39798 44.5928 2.48456 44.6829C2.57114 44.7729 2.63627 44.8813 2.67505 45C2.78381 45.4005 2.83004 45.8154 2.81207 46.23V57.0801C2.82871 57.518 2.78084 57.9559 2.67004 58.3799C2.63044 58.5145 2.56404 58.6398 2.47485 58.7481C2.38567 58.8563 2.27555 58.9454 2.15106 59.01C1.78598 59.162 1.39343 59.2368 0.998047 59.23V59.6799C1.49405 59.6399 2.18604 59.6201 3.07404 59.6201C4.06404 59.6201 4.82506 59.6399 5.35706 59.6799V59.23C4.91217 59.2383 4.46963 59.1637 4.05206 59.01C3.9178 58.9508 3.79739 58.8641 3.69855 58.7556C3.5997 58.6471 3.52463 58.5191 3.47809 58.3799C3.35856 57.9574 3.3069 57.5188 3.32507 57.0801V45.29L8.96204 59.79H9.32306L14.709 45.3501V57.3101C14.727 57.7247 14.6808 58.1396 14.5721 58.54C14.5316 58.6579 14.4659 58.7654 14.3795 58.8552C14.2932 58.945 14.1882 59.015 14.0721 59.0601C13.6929 59.1739 13.299 59.2311 12.9031 59.23V59.6799C13.5291 59.6399 14.4831 59.6201 15.7651 59.6201C16.9604 59.6201 17.9074 59.6399 18.6061 59.6799V59.23C18.2082 59.2306 17.8124 59.1734 17.4311 59.0601C17.3148 59.0152 17.2098 58.9453 17.1234 58.8555C17.037 58.7656 16.9714 58.658 16.9311 58.54C16.8223 58.1396 16.7761 57.7247 16.7941 57.3101V46.23C16.7761 45.8154 16.8223 45.4005 16.9311 45C16.9699 44.8813 17.0349 44.7729 17.1215 44.6829C17.2081 44.5928 17.314 44.5234 17.4311 44.48C17.8128 44.3672 18.2081 44.3067 18.6061 44.3001H18.6111ZM26.597 50.5601V51.9399C26.5929 52.0878 26.5572 52.2331 26.4921 52.366C26.4271 52.4988 26.3343 52.6161 26.22 52.71C25.8504 53.0074 25.4355 53.2437 24.9911 53.4099C24.4231 53.6399 24.066 53.7801 23.92 53.8401C23.2256 54.1258 22.5505 54.4565 21.899 54.8301C21.4384 55.092 21.0397 55.4499 20.73 55.8799C20.4457 56.309 20.3008 56.8156 20.3151 57.3301C20.2962 57.8288 20.4317 58.3211 20.7031 58.74C20.9597 59.1105 21.3181 59.3989 21.735 59.5701C22.1876 59.746 22.6696 59.8342 23.1551 59.8301C23.8042 59.8264 24.4435 59.6722 25.0231 59.3799C25.6846 59.0328 26.2314 58.5016 26.597 57.8501C26.5709 58.3637 26.7189 58.8711 27.0171 59.29C27.2089 59.4892 27.4439 59.6415 27.704 59.7351C27.9642 59.8288 28.2424 59.8613 28.5171 59.8301C28.7822 59.8341 29.0467 59.8037 29.3041 59.74C29.515 59.6765 29.7167 59.5857 29.9041 59.47C30.0787 59.36 30.2971 59.21 30.5591 59.02L30.308 58.6299C30.1561 58.7662 29.9882 58.8838 29.808 58.98C29.6537 59.0602 29.482 59.1015 29.308 59.1001C29.2054 59.1102 29.1019 59.0921 29.0085 59.0481C28.9152 59.0041 28.8356 58.9358 28.7781 58.8501C28.6536 58.5992 28.599 58.3193 28.6201 58.04V51.8301C28.6385 51.1878 28.574 50.5457 28.428 49.9199C28.3029 49.4601 28.0619 49.0401 27.7281 48.7C27.4167 48.4136 27.0422 48.2048 26.6351 48.0901C26.1116 47.93 25.5664 47.8524 25.019 47.8601C24.4149 47.8531 23.8129 47.9339 23.2321 48.1001C22.7557 48.2336 22.3012 48.4356 21.8831 48.7C21.5879 48.8571 21.3371 49.0861 21.1538 49.3657C20.9705 49.6454 20.8605 49.9667 20.834 50.3001C20.817 50.6615 20.9317 51.0169 21.157 51.3001C21.2672 51.4263 21.4045 51.526 21.5586 51.5918C21.7127 51.6576 21.8797 51.6877 22.0471 51.6799C22.3945 51.6967 22.7357 51.5827 23.0031 51.3601C23.1238 51.2468 23.2181 51.1081 23.2795 50.9544C23.3408 50.8006 23.3676 50.6353 23.358 50.47C23.3669 50.1571 23.2673 49.8509 23.0761 49.603C22.8849 49.3552 22.614 49.181 22.3091 49.1101C22.5938 48.8172 22.9415 48.5927 23.3258 48.4541C23.7101 48.3155 24.1209 48.2663 24.527 48.3101C25.0787 48.2761 25.624 48.443 26.0621 48.78C26.2701 49.0234 26.4256 49.3072 26.5187 49.6135C26.6118 49.9199 26.6406 50.2421 26.6031 50.5601H26.597ZM26.597 52.8601V57.25C26.3674 57.7328 26.0117 58.1447 25.5674 58.4421C25.1232 58.7396 24.6069 58.9115 24.0731 58.9399C23.8337 58.9498 23.5949 58.9105 23.3713 58.8245C23.1477 58.7385 22.9441 58.6076 22.7731 58.4399C22.5974 58.24 22.4633 58.0071 22.3788 57.7546C22.2944 57.5022 22.2611 57.2354 22.2811 56.97C22.2667 56.5032 22.3761 56.0408 22.5981 55.6299C22.7908 55.2906 23.0511 54.9946 23.363 54.76C23.7081 54.5217 24.0736 54.3141 24.4551 54.1399C25.2641 53.7399 25.795 53.4801 26.05 53.3301C26.2661 53.2175 26.4532 53.0567 26.597 52.8601ZM34.9431 50.72V47.9299C34.1878 48.1506 33.4026 48.2519 32.6161 48.23C32.1574 48.23 31.6951 48.2099 31.2291 48.1699V48.6399C31.4714 48.6119 31.717 48.6397 31.947 48.7212C32.177 48.8027 32.3854 48.9358 32.5561 49.1101C32.8448 49.5544 32.9774 50.0821 32.933 50.6101V57.6101C32.948 57.9419 32.8903 58.2729 32.764 58.5801C32.6568 58.8076 32.4643 58.9836 32.2281 59.0701C31.9052 59.1737 31.567 59.221 31.2281 59.21V59.6799C32.5968 59.6199 33.4777 59.5901 33.871 59.5901C34.3304 59.5901 35.4777 59.6199 37.313 59.6799V59.21C36.693 59.2541 36.0737 59.1151 35.532 58.8101C35.3203 58.6415 35.155 58.4216 35.0518 58.1714C34.9486 57.9212 34.9108 57.6487 34.9421 57.3799V52.6399C34.9548 52.0032 35.0906 51.3751 35.342 50.79C35.5904 50.1605 35.9702 49.5912 36.4561 49.1201C36.6649 48.907 36.9137 48.7371 37.1882 48.6204C37.4628 48.5037 37.7578 48.4424 38.0561 48.4399C38.1468 48.4328 38.2377 48.4492 38.3201 48.4878C38.4025 48.5264 38.4735 48.5857 38.5261 48.6599C38.3017 48.7742 38.1122 48.947 37.9778 49.1599C37.8433 49.3729 37.7688 49.6184 37.7621 49.8701C37.7543 50.0287 37.7815 50.1871 37.8419 50.334C37.9022 50.4809 37.9941 50.6126 38.1111 50.72C38.3438 50.9231 38.6432 51.0336 38.9521 51.03C39.1278 51.0359 39.3025 51.0021 39.4634 50.9312C39.6242 50.8602 39.7669 50.7539 39.881 50.6201C40.116 50.3408 40.2402 49.985 40.23 49.6201C40.2333 49.3071 40.142 49.0003 39.9681 48.74C39.7898 48.4637 39.5385 48.2423 39.2421 48.1001C38.9153 47.9362 38.5536 47.8538 38.188 47.8601C37.6927 47.8606 37.2089 48.0104 36.8 48.29C36.3579 48.575 35.9741 48.9416 35.6691 49.3701C35.3662 49.7846 35.1219 50.2388 34.9431 50.72ZM50.6741 58.04L46.6321 52.52L49.3521 49.6599C49.8702 49.0759 50.5869 48.7054 51.363 48.6201V48.1699C50.763 48.2299 50.1148 48.26 49.4181 48.26C48.7701 48.26 47.9287 48.2299 46.894 48.1699V48.6201C47.3017 48.6053 47.7087 48.6662 48.0941 48.8001C48.2212 48.8357 48.3334 48.9114 48.4141 49.0159C48.4948 49.1204 48.5397 49.2479 48.5421 49.3799C48.4616 49.8621 48.2094 50.2992 47.832 50.6101L46.1711 52.3301C45.933 52.5839 45.652 52.7936 45.3411 52.95C44.998 53.1147 44.6281 53.2163 44.2491 53.25V42.1599C43.496 42.3915 42.7095 42.4963 41.9221 42.47C41.4701 42.47 41.0074 42.4499 40.5341 42.4099V42.8799C40.7757 42.8524 41.0205 42.8796 41.2503 42.9592C41.4801 43.0388 41.6892 43.169 41.8621 43.3401C42.1508 43.7844 42.2834 44.3121 42.2391 44.8401V57.6101C42.2542 57.942 42.1962 58.2731 42.069 58.5801C41.9625 58.8077 41.7701 58.9839 41.5341 59.0701C41.2112 59.1737 40.8729 59.2209 40.5341 59.21V59.6799C41.9034 59.6199 42.8067 59.5901 43.2441 59.5901C43.6441 59.5901 44.4704 59.6199 45.7231 59.6799V59.21C45.4273 59.2213 45.1322 59.1738 44.855 59.0701C44.6437 58.9733 44.4789 58.7973 44.3961 58.5801C44.2853 58.2692 44.2354 57.9399 44.2491 57.6101V53.71C44.5749 53.71 44.8962 53.7852 45.188 53.9299C45.4833 54.1319 45.7358 54.3902 45.9311 54.6899L48.498 58.45C48.5774 58.5461 48.6234 58.6655 48.6291 58.79C48.6273 58.8519 48.6093 58.9122 48.5768 58.9649C48.5444 59.0175 48.4985 59.0608 48.444 59.0901C48.2922 59.1768 48.1187 59.2183 47.944 59.21V59.6799C49.1974 59.6199 50.0241 59.5901 50.4241 59.5901C50.7301 59.5901 51.3344 59.6199 52.2371 59.6799V59.21C51.9422 59.1774 51.6624 59.063 51.4291 58.8799C51.1427 58.6335 50.8892 58.3513 50.675 58.04H50.6741ZM58.6271 43.8601V44.3001C59.0251 44.3067 59.4203 44.3672 59.8021 44.48C59.9192 44.5234 60.025 44.5928 60.1116 44.6829C60.1982 44.7729 60.2633 44.8813 60.3021 45C60.4108 45.4005 60.4571 45.8154 60.4391 46.23V57.3101C60.4571 57.7247 60.4108 58.1396 60.3021 58.54C60.2618 58.658 60.1961 58.7656 60.1097 58.8555C60.0234 58.9453 59.9183 59.0152 59.8021 59.0601C59.4207 59.1734 59.0249 59.2306 58.6271 59.23V59.6799C59.2544 59.6399 60.1794 59.6201 61.402 59.6201C61.752 59.6201 62.311 59.6299 63.079 59.6499C63.847 59.6699 64.334 59.6799 64.537 59.6799C66.0515 59.7231 67.5519 59.3789 68.8961 58.6799C70.0861 58.0417 71.0554 57.0589 71.6771 55.8601C72.3387 54.5359 72.6668 53.07 72.6331 51.5901C72.706 50.5469 72.569 49.4996 72.2303 48.5103C71.8916 47.5209 71.358 46.6097 70.6611 45.8301C69.3464 44.5201 67.3707 43.8634 64.7341 43.8601C64.5341 43.8601 63.4091 43.8799 61.3591 43.9199L60.8121 43.9299C60.1571 43.9299 59.4281 43.9101 58.6271 43.8601ZM62.5161 57.3601V46.1799C62.5008 45.7756 62.5453 45.3713 62.6481 44.98C62.683 44.8576 62.7439 44.7441 62.8268 44.6475C62.9096 44.5508 63.0124 44.4732 63.1281 44.4199C63.4628 44.2944 63.8201 44.24 64.1771 44.26C65.4442 44.2009 66.7045 44.4769 67.8311 45.0601C68.75 45.6144 69.4444 46.4747 69.7921 47.49C70.2337 48.8413 70.4368 50.259 70.3921 51.6799C70.4315 53.1069 70.2452 54.5311 69.8401 55.8999C69.5201 56.9375 68.8454 57.8296 67.9341 58.4199C66.7937 59.0503 65.4993 59.3484 64.1981 59.28C63.8361 59.2952 63.4746 59.2409 63.1331 59.1201C63.0162 59.0677 62.9122 58.9903 62.8283 58.8936C62.7444 58.7968 62.6825 58.6831 62.647 58.5601C62.5429 58.169 62.4985 57.7645 62.5151 57.3601H62.5161ZM84.2241 57L83.7761 56.8201C83.5271 57.488 83.077 58.0622 82.4879 58.4634C81.8988 58.8646 81.1997 59.0731 80.4871 59.0601C79.8839 59.0512 79.3005 58.8438 78.8271 58.47C78.2637 58.0263 77.825 57.444 77.5541 56.78C77.2141 55.9633 77.0486 55.0844 77.0681 54.2C77.0632 53.7222 77.0886 53.2446 77.144 52.77H84.136C84.239 51.4483 83.8521 50.135 83.0491 49.0801C82.6527 48.6628 82.1698 48.3372 81.6342 48.1265C81.0987 47.9157 80.5235 47.8249 79.949 47.8601C79.0013 47.8408 78.0701 48.109 77.2781 48.6299C76.4896 49.1771 75.8768 49.9415 75.514 50.8301C75.0768 51.8986 74.8648 53.0457 74.8911 54.2C74.87 55.2426 75.079 56.2772 75.5031 57.23C75.8776 58.0721 76.4959 58.7826 77.2781 59.27C78.1082 59.7732 79.0657 60.0266 80.0361 60C80.7005 60.0113 81.358 59.8639 81.954 59.5701C82.5047 59.3063 82.9926 58.9277 83.3851 58.46C83.7543 58.031 84.038 57.5355 84.2211 57H84.2241ZM81.9841 52.3501H77.1121C77.1562 51.5708 77.3278 50.8039 77.6201 50.0801C77.8264 49.5548 78.1625 49.0902 78.597 48.73C78.9592 48.4466 79.4053 48.2919 79.8651 48.29C80.0942 48.2864 80.3214 48.3328 80.5308 48.426C80.7401 48.5193 80.9266 48.6573 81.0771 48.8301C81.4343 49.2574 81.6818 49.7654 81.798 50.3101C81.9555 50.978 82.0182 51.6647 81.9841 52.3501ZM87.5561 48.1899H85.764V48.6399H87.5561V57.6101C87.5713 57.942 87.5132 58.2731 87.386 58.5801C87.2795 58.8077 87.0872 58.9839 86.8511 59.0701C86.5282 59.1737 86.19 59.2209 85.8511 59.21V59.6799C87.2511 59.6199 88.1324 59.5901 88.4951 59.5901C88.9537 59.5901 90.1007 59.6199 91.936 59.6799V59.21C91.3163 59.2541 90.6973 59.1151 90.1561 58.8101C89.9441 58.6416 89.7787 58.4219 89.6754 58.1716C89.5722 57.9214 89.5345 57.6488 89.566 57.3799V48.6399H91.9661V48.1899H89.566V47.6101C89.566 46.2701 89.5914 45.3 89.6421 44.7C89.6583 44.2387 89.77 43.786 89.97 43.3701C90.1056 43.1057 90.3151 42.8864 90.5731 42.739C90.8311 42.5916 91.1264 42.5225 91.423 42.54C91.6782 42.5282 91.9327 42.5761 92.1661 42.6799C92.2474 42.7096 92.3215 42.7561 92.3835 42.8164C92.4456 42.8767 92.4942 42.9496 92.5261 43.03C92.261 43.0796 92.0205 43.2169 91.8431 43.4199C91.6686 43.6301 91.5775 43.897 91.587 44.1699C91.5794 44.3335 91.6072 44.4968 91.6685 44.6487C91.7297 44.8006 91.8231 44.9376 91.9421 45.0501C92.1781 45.2666 92.4899 45.3817 92.8101 45.3701C92.968 45.3761 93.1255 45.3497 93.2729 45.293C93.4204 45.2363 93.5549 45.1503 93.6681 45.04C93.7783 44.9304 93.8647 44.7993 93.922 44.6548C93.9793 44.5103 94.0062 44.3553 94.001 44.2C94.0011 43.9297 93.9379 43.6633 93.8163 43.4219C93.6947 43.1805 93.5183 42.9709 93.3011 42.8101C92.7405 42.3924 92.0548 42.1772 91.3561 42.2C90.8349 42.195 90.3182 42.2972 89.8381 42.5C89.3992 42.6785 89.0097 42.9598 88.7021 43.3201C88.4113 43.6585 88.1803 44.0439 88.019 44.46C87.8377 44.9464 87.7184 45.4537 87.6641 45.97C87.5836 46.7071 87.5472 47.4484 87.5551 48.1899H87.5561ZM98.3561 47.8601C97.4419 47.8445 96.5397 48.0685 95.7391 48.51C94.9458 48.9734 94.3167 49.6725 93.9391 50.51C93.0578 52.7118 93.0578 55.1684 93.9391 57.3701C94.3198 58.203 94.9484 58.898 95.7391 59.3601C96.5471 59.7806 97.4447 60 98.3556 60C99.2665 60 100.164 59.7806 100.972 59.3601C101.763 58.8979 102.391 58.203 102.772 57.3701C103.653 55.1684 103.653 52.7118 102.772 50.51C102.394 49.6725 101.765 48.9735 100.972 48.51C100.172 48.0684 99.2699 47.8443 98.3561 47.8601ZM98.3561 48.3101C98.8046 48.3154 99.2423 48.4479 99.6185 48.6921C99.9946 48.9364 100.294 49.2824 100.481 49.6899C101.522 52.4242 101.522 55.4457 100.481 58.1799C100.296 58.5884 99.9971 58.9348 99.6202 59.1777C99.2434 59.4207 98.8045 59.5501 98.3561 59.5501C97.9077 59.5501 97.4687 59.4207 97.0919 59.1777C96.715 58.9348 96.4162 58.5884 96.2311 58.1799C95.1897 55.4457 95.1897 52.4242 96.2311 49.6899C96.4184 49.2824 96.7175 48.9364 97.0937 48.6921C97.4698 48.4479 97.9076 48.3154 98.3561 48.3101ZM115.289 57.27V47.9299C114.534 48.1506 113.749 48.2519 112.962 48.23C112.503 48.23 112.04 48.2099 111.575 48.1699V48.6399C111.817 48.6119 112.063 48.6397 112.293 48.7212C112.523 48.8027 112.731 48.9358 112.902 49.1101C113.191 49.5544 113.323 50.0821 113.279 50.6101V55.23C113.288 55.9329 113.154 56.6303 112.886 57.28C112.66 57.8532 112.287 58.3567 111.804 58.74C111.365 59.0932 110.817 59.2839 110.253 59.28C109.848 59.3135 109.446 59.1919 109.128 58.9399C108.878 58.719 108.712 58.419 108.658 58.0901C108.584 57.634 108.55 57.172 108.558 56.71V47.9299C107.803 48.1496 107.018 48.2509 106.232 48.23C105.773 48.23 105.311 48.2099 104.844 48.1699V48.6399C105.086 48.611 105.331 48.6384 105.56 48.72C105.79 48.8015 105.997 48.9351 106.166 49.1101C106.451 49.5558 106.582 50.0829 106.537 50.6101V56.22C106.524 56.8212 106.581 57.422 106.707 58.01C106.796 58.4332 106.994 58.8259 107.28 59.1499C107.589 59.4436 107.955 59.6707 108.355 59.8169C108.756 59.9631 109.182 60.0254 109.607 60C110.373 60.004 111.122 59.7738 111.754 59.3401C112.46 58.8379 112.993 58.1284 113.278 57.3101V59.95C114.031 59.7182 114.818 59.6134 115.605 59.6399C116.064 59.6399 116.526 59.66 116.992 59.7V59.23C116.751 59.2575 116.506 59.2305 116.276 59.1509C116.047 59.0713 115.838 58.9411 115.665 58.77C115.376 58.3258 115.244 57.798 115.288 57.27H115.289ZM58.7341 6.87474e-06C61.9743 0.00633321 65.14 0.973041 67.8311 2.77784C70.5222 4.58264 72.618 7.14447 73.8536 10.1399C75.0893 13.1353 75.4092 16.4299 74.7732 19.6072C74.1372 22.7844 72.5737 25.7017 70.2802 27.9907C67.9868 30.2797 65.0663 31.8375 61.8878 32.4673C58.7093 33.0971 55.4155 32.7708 52.4225 31.5293C49.4295 30.2878 46.8716 28.1871 45.0721 25.4924C43.2725 22.7978 42.3121 19.6302 42.3121 16.3899C42.3166 12.0388 44.0492 7.86786 47.1288 4.7942C50.2085 1.72053 54.383 -0.00397339 58.7341 6.87474e-06ZM64.1141 17.3799H63.8411L63.5811 18.0701C63.5528 18.3241 63.4533 18.565 63.2941 18.7649C63.1348 18.9648 62.9224 19.1156 62.6811 19.2C62.6427 19.204 62.6039 19.1992 62.5677 19.1858C62.5315 19.1724 62.4989 19.1509 62.4724 19.1228C62.4458 19.0948 62.4262 19.0608 62.4149 19.0239C62.4035 18.987 62.4008 18.948 62.407 18.9099C62.4148 18.766 62.4456 18.6243 62.498 18.49L63.8981 14.25C64.0198 13.9162 64.0873 13.5651 64.0981 13.21C64.117 13.0537 64.0993 12.8953 64.0463 12.7471C63.9932 12.5989 63.9064 12.4652 63.7926 12.3565C63.6788 12.2477 63.5412 12.1671 63.3908 12.1209C63.2404 12.0746 63.0813 12.0641 62.9261 12.0901C62.5226 12.0842 62.1242 12.1805 61.7681 12.3701C61.3615 12.6115 61.013 12.9392 60.7471 13.3301C60.3492 13.9038 60.0184 14.521 59.761 15.1699L60.0211 14.25C60.1253 13.9092 60.1841 13.5561 60.196 13.2C60.216 13.0471 60.2002 12.8918 60.1497 12.7461C60.0992 12.6004 60.0154 12.4683 59.9051 12.3606C59.7948 12.2529 59.6609 12.1725 59.514 12.1255C59.3672 12.0785 59.2114 12.0664 59.0591 12.0901C58.6225 12.0799 58.1916 12.1905 57.8141 12.4099C57.3991 12.6781 57.047 13.0329 56.782 13.45C56.3994 14.0493 56.0784 14.6861 55.824 15.3501L56.1541 14.0901C56.2349 13.8105 56.2773 13.521 56.2801 13.23C56.3011 13.0737 56.2854 12.9148 56.2343 12.7656C56.1833 12.6165 56.0982 12.4812 55.9859 12.3706C55.8736 12.26 55.737 12.1771 55.5871 12.1284C55.4372 12.0797 55.278 12.0667 55.1221 12.0901C54.6795 12.0791 54.2464 12.2184 53.8933 12.4854C53.5402 12.7523 53.2881 13.1313 53.178 13.5601L52.7921 14.6499H53.066L53.3401 13.9199C53.4429 13.6101 53.5905 13.3172 53.7781 13.0501C53.83 12.973 53.8993 12.9092 53.9804 12.864C54.0616 12.8188 54.1522 12.7936 54.2451 12.79C54.2834 12.7875 54.3219 12.7938 54.3574 12.8086C54.3929 12.8234 54.4245 12.8464 54.4496 12.8755C54.4748 12.9046 54.4929 12.9388 54.5026 12.9761C54.5122 13.0133 54.513 13.0525 54.5051 13.0901C54.5002 13.2293 54.4767 13.3671 54.4351 13.5L52.6801 19.71H54.7001L55.079 18.23V18.27C55.3576 17.318 55.6915 16.383 56.079 15.47C56.3512 14.7976 56.702 14.1599 57.1241 13.5701C57.2215 13.3923 57.3569 13.2382 57.5208 13.1189C57.6847 12.9996 57.873 12.9179 58.0721 12.8799C58.1075 12.8784 58.1428 12.8852 58.1752 12.8994C58.2077 12.9136 58.2365 12.9349 58.2594 12.9619C58.2823 12.9889 58.2988 13.0209 58.3076 13.0552C58.3164 13.0895 58.3172 13.1252 58.3101 13.1599C58.2941 13.3613 58.2518 13.5597 58.1841 13.75L56.4301 19.71H58.4861L58.858 18.3799V18.4199C59.17 17.3772 59.5474 16.3553 59.988 15.3601C60.2677 14.6995 60.626 14.0749 61.0551 13.5C61.1508 13.3406 61.279 13.203 61.4313 13.0962C61.5835 12.9894 61.7566 12.9156 61.9391 12.8799C62.0701 12.8799 62.139 12.9799 62.139 13.1699C62.1302 13.3677 62.0924 13.5632 62.027 13.75L60.7361 17.6201C60.6072 17.9837 60.5336 18.3645 60.5181 18.75C60.5068 18.9181 60.5342 19.0865 60.598 19.2424C60.6619 19.3984 60.7605 19.5377 60.8865 19.6497C61.0124 19.7616 61.1623 19.8433 61.3246 19.8884C61.4869 19.9336 61.6574 19.9408 61.8231 19.9099C62.2677 19.9237 62.7035 19.7841 63.0575 19.5147C63.4114 19.2452 63.662 18.8622 63.7671 18.4299L64.1141 17.3799Z" fill="black"/>
</svg>
