<svg width="155" height="44" viewBox="0 0 155 44" fill="none" xmlns="http://www.w3.org/2000/svg">
<path fill-rule="evenodd" clip-rule="evenodd" d="M61.389 18.4099C65.229 18.4099 68.946 16.56 68.946 11.22C68.946 5.87997 65.229 4.02002 61.389 4.02002H55.4V4.12012C55.9098 4.88481 56.163 5.79177 56.123 6.70996V15.72C56.163 16.6382 55.9098 17.5454 55.4 18.3101V18.4099H61.388H61.389ZM60.997 17.8799C60.3583 17.8762 59.7241 17.7718 59.118 17.5701V4.86011C59.7241 4.65841 60.3583 4.55372 60.997 4.55005C63.97 4.55005 65.807 7.07997 65.807 11.22C65.807 15.36 63.97 17.8799 61 17.8799H60.997ZM79.812 14.9399C79.5355 15.478 79.1101 15.9253 78.5865 16.2285C78.063 16.5317 77.4633 16.6779 76.859 16.6499C74.733 16.6499 72.936 14.98 72.813 11.79H79.874C79.8787 11.252 79.7721 10.7186 79.561 10.2236C79.3499 9.72868 79.0387 9.28283 78.6471 8.91382C78.2554 8.5448 77.7918 8.26068 77.2851 8.07935C76.7785 7.89801 76.2399 7.82343 75.703 7.86011C72.936 7.86011 70.562 10.08 70.562 13.52C70.5061 14.1908 70.5929 14.8659 70.8167 15.5007C71.0406 16.1356 71.3962 16.7159 71.8605 17.2034C72.3247 17.6908 72.8869 18.0743 73.5101 18.3289C74.1332 18.5834 74.8033 18.703 75.476 18.6799C76.5559 18.7055 77.609 18.3417 78.4429 17.655C79.2768 16.9684 79.8359 16.0047 80.018 14.9399H79.812ZM74.919 8.45996C76.219 8.45996 76.963 9.61007 77.128 11.3201H72.813C72.854 9.41007 73.721 8.45996 74.919 8.45996ZM85.865 18.4099V18.3101C85.4511 17.6093 85.2503 16.803 85.287 15.99V11.3999C85.284 11.1396 85.3342 10.8815 85.4345 10.6414C85.5349 10.4012 85.6833 10.1842 85.8706 10.0034C86.0579 9.82268 86.2801 9.68207 86.5237 9.59033C86.7673 9.4986 87.027 9.45769 87.287 9.46997C87.5404 9.46142 87.7928 9.50592 88.028 9.60059C88.2631 9.69525 88.476 9.83807 88.6528 10.0198C88.8296 10.2015 88.9665 10.4181 89.0547 10.6558C89.1429 10.8935 89.1805 11.1468 89.165 11.3999V15.99C89.2017 16.803 89.0009 17.6093 88.587 18.3101V18.4099H92.531V18.3101C92.1172 17.6093 91.9163 16.803 91.953 15.99V11.3401C91.9908 10.8868 91.932 10.4306 91.7805 10.0017C91.629 9.57284 91.3881 9.18096 91.074 8.85205C90.7598 8.52314 90.3794 8.26477 89.958 8.09375C89.5365 7.92273 89.0835 7.84311 88.629 7.86011C87.9508 7.84566 87.2831 8.02899 86.7074 8.3877C86.1317 8.74641 85.6729 9.26475 85.387 9.87988H85.287V7.86011H85.187L81.759 9.01001V9.12012C82.0372 9.42186 82.2475 9.7796 82.3759 10.1694C82.5042 10.5593 82.5475 10.9719 82.503 11.3799V15.99C82.5394 16.8031 82.3382 17.6094 81.924 18.3101V18.4099H85.868H85.865ZM99.6 18.4099L102.924 10.4099C103.244 9.56755 103.769 8.81837 104.452 8.22998V8.12988H102V8.22998C102.287 8.56324 102.467 8.97587 102.515 9.41333C102.563 9.85079 102.477 10.2924 102.268 10.6799L100.183 15.76L97.974 10.54C97.7831 10.18 97.6937 9.77487 97.7155 9.36792C97.7374 8.96097 97.8696 8.5675 98.098 8.22998V8.12988H93.576V8.22998C94.1639 8.89414 94.6319 9.65548 94.959 10.48L98.366 18.4099H99.6ZM114.284 14.9399C114.007 15.4779 113.582 15.9251 113.058 16.2283C112.535 16.5314 111.935 16.6776 111.331 16.6499C109.205 16.6499 107.408 14.98 107.284 11.79H114.346C114.351 11.252 114.244 10.7186 114.033 10.2236C113.822 9.72868 113.511 9.28283 113.119 8.91382C112.727 8.5448 112.264 8.26068 111.757 8.07935C111.25 7.89801 110.712 7.82343 110.175 7.86011C107.408 7.86011 105.034 10.08 105.034 13.52C104.978 14.1909 105.065 14.8661 105.288 15.501C105.512 16.1359 105.868 16.7161 106.332 17.2036C106.796 17.6911 107.359 18.0746 107.982 18.3291C108.605 18.5836 109.275 18.7032 109.948 18.6799C111.028 18.7055 112.081 18.3417 112.915 17.655C113.749 16.9684 114.308 16.0047 114.49 14.9399H114.284ZM109.39 8.45996C110.69 8.45996 111.434 9.61007 111.6 11.3201H107.284C107.326 9.41007 108.193 8.45996 109.39 8.45996ZM120.337 18.4099V18.3101C119.923 17.6093 119.722 16.803 119.759 15.99V12.78C119.759 11.05 120.585 10.4299 122.278 10.4299H123.478V7.86011C122.63 7.78237 121.784 8.03052 121.113 8.55444C120.442 9.07836 119.996 9.83848 119.865 10.6799H119.765V7.86011H119.665L116.237 9.01001V9.12012C116.515 9.42194 116.725 9.77961 116.853 10.1694C116.981 10.5593 117.025 10.972 116.98 11.3799V15.99C117.017 16.803 116.816 17.6093 116.402 18.3101V18.4099H120.346H120.337ZM128.475 18.6799C130.519 18.6799 132.645 17.7601 132.645 15.3301C132.645 13.1301 131.056 12.31 128.991 11.75C127.463 11.34 126.637 10.9099 126.637 9.91992C126.634 9.70531 126.676 9.49259 126.761 9.29541C126.846 9.09824 126.971 8.92124 127.129 8.77588C127.287 8.63052 127.474 8.5201 127.677 8.4519C127.881 8.3837 128.096 8.35903 128.31 8.37988C129.693 8.37988 131.159 9.71 131.778 11.5H131.985V8.62012C130.951 8.15554 129.835 7.89736 128.702 7.86011C126.41 7.86011 124.717 9.13988 124.717 11.1299C124.717 13.2499 126.328 14.05 128.31 14.55C129.899 14.94 130.663 15.3899 130.663 16.4199C130.667 16.6601 130.62 16.8984 130.527 17.1196C130.433 17.3408 130.295 17.5402 130.12 17.7048C129.945 17.8695 129.738 17.9958 129.512 18.0759C129.285 18.156 129.044 18.188 128.805 18.1699C127.921 18.0526 127.092 17.6753 126.423 17.0859C125.754 16.4966 125.275 15.7221 125.047 14.8601H124.841V17.9199C125.981 18.4405 127.222 18.7001 128.475 18.6799ZM59.84 37.3899V37.29C59.331 36.525 59.0782 35.618 59.118 34.7V23.8C59.6917 23.5792 60.3034 23.4738 60.918 23.49C62.941 23.49 63.891 25.3 63.891 27.21C63.891 29.25 62.941 31 60.98 31C60.562 31.0079 60.145 30.9575 59.741 30.8501V31.1799C60.3385 31.4181 60.9768 31.5371 61.62 31.53C64.22 31.53 66.988 30.3 66.988 27.21C66.988 23.92 64.077 23 61.269 23H55.4V23.1001C55.9098 23.8648 56.163 24.7717 56.123 25.6899V34.7C56.163 35.6181 55.9098 36.5253 55.4 37.29V37.3899H59.839H59.84ZM72.605 37.3899V37.29C72.1912 36.5892 71.9903 35.783 72.027 34.97V31.76C72.027 30.03 72.853 29.4099 74.546 29.4099H75.746V26.8401C74.898 26.7624 74.0524 27.0107 73.3811 27.5347C72.7099 28.0586 72.2635 28.8185 72.133 29.6599H72.033V26.8401H71.933L68.505 27.99V28.1001C68.783 28.4019 68.9931 28.7596 69.1213 29.1494C69.2495 29.5392 69.2927 29.9522 69.248 30.3601V34.97C69.2847 35.783 69.0839 36.5892 68.67 37.29V37.3899H72.614H72.605ZM81.94 37.6599C83.0163 37.6892 84.0768 37.3968 84.9859 36.8201C85.8951 36.2434 86.6116 35.4087 87.0438 34.4226C87.476 33.4365 87.6043 32.3438 87.4122 31.2844C87.2201 30.225 86.7164 29.2469 85.9655 28.4753C85.2146 27.7038 84.2506 27.1739 83.1968 26.9531C82.1431 26.7323 81.0474 26.8308 80.0499 27.2361C79.0525 27.6413 78.1985 28.3349 77.5973 29.228C76.9961 30.1212 76.675 31.1733 76.675 32.25C76.6369 32.9582 76.7459 33.6666 76.9951 34.3306C77.2443 34.9945 77.6283 35.5997 78.1229 36.1079C78.6175 36.6161 79.212 37.0163 79.869 37.2834C80.5259 37.5506 81.2311 37.6787 81.94 37.6599ZM81.94 37.1899C80.371 37.1899 79.669 35.09 79.669 32.25C79.669 29.41 80.369 27.3201 81.94 27.3201C83.511 27.3201 84.191 29.41 84.191 32.25C84.191 35.09 83.509 37.1899 81.94 37.1899ZM93.073 41.51V41.3999C92.6583 40.6994 92.4574 39.8932 92.495 39.0801V36.8999C93.2094 37.4299 94.0843 37.6982 94.973 37.6599C97.616 37.6599 99.887 35.3601 99.887 31.8601C99.887 28.8201 98.235 26.8401 95.695 26.8401C95.0587 26.8363 94.4335 27.0067 93.8871 27.3328C93.3406 27.6589 92.8938 28.1281 92.595 28.6899H92.495V26.8401H92.395L88.968 27.99V28.1001C89.2458 28.402 89.4559 28.7599 89.584 29.1497C89.7122 29.5395 89.7555 29.9522 89.711 30.3601V39.0801C89.7486 39.8932 89.5477 40.6994 89.133 41.3999V41.51H93.076H93.073ZM94.56 37.0601C94.0187 37.0274 93.5086 36.7959 93.1275 36.4102C92.7464 36.0244 92.5211 35.5116 92.495 34.97V30.01C92.5442 29.524 92.7763 29.0749 93.1443 28.7537C93.5124 28.4324 93.9888 28.2631 94.477 28.28C95.964 28.28 96.934 29.84 96.934 32.46C96.934 35.36 96.046 37.0601 94.56 37.0601ZM110.752 33.9199C110.475 34.4566 110.049 34.9024 109.525 35.2039C109.002 35.5053 108.402 35.6498 107.799 35.6201C105.672 35.6201 103.876 33.96 103.752 30.77H110.813C110.818 30.2318 110.712 29.6984 110.502 29.2031C110.291 28.7079 109.98 28.2615 109.588 27.8923C109.196 27.5232 108.732 27.2392 108.226 27.0581C107.719 26.877 107.18 26.8028 106.643 26.8401C103.876 26.8401 101.502 29.06 101.502 32.5C101.446 33.1709 101.533 33.846 101.756 34.481C101.98 35.1159 102.336 35.6961 102.8 36.1836C103.264 36.6711 103.827 37.0549 104.45 37.3093C105.073 37.5638 105.743 37.6832 106.416 37.6599C107.496 37.6855 108.549 37.3217 109.383 36.635C110.217 35.9484 110.776 34.9847 110.958 33.9199H110.752ZM105.858 27.4399C107.158 27.4399 107.902 28.59 108.067 30.3H103.752C103.794 28.38 104.661 27.4399 105.858 27.4399ZM116.805 37.3899V37.29C116.391 36.5892 116.19 35.783 116.227 34.97V31.76C116.227 30.03 117.053 29.4099 118.746 29.4099H119.946V26.8401C119.098 26.7624 118.252 27.0107 117.581 27.5347C116.91 28.0586 116.464 28.8185 116.333 29.6599H116.233V26.8401H116.133L112.705 27.99V28.1001C112.983 28.4019 113.193 28.7596 113.321 29.1494C113.449 29.5392 113.493 29.9522 113.448 30.3601V34.97C113.485 35.783 113.284 36.5892 112.87 37.29V37.3899H116.814H116.805ZM124.943 37.6599C125.522 37.6879 126.097 37.5483 126.599 37.2573C127.101 36.9664 127.508 36.5367 127.771 36.02L127.565 35.9099C127.408 36.0863 127.213 36.2249 126.995 36.3149C126.777 36.405 126.541 36.4443 126.305 36.4299C126.06 36.4347 125.816 36.3869 125.591 36.2896C125.366 36.1922 125.165 36.0475 125 35.8655C124.836 35.6834 124.712 35.4682 124.638 35.2344C124.564 35.0005 124.541 34.7535 124.571 34.51V27.8501H127.317L127.565 27.1101H124.571V24.9099H124.471C123.494 26.0631 122.255 26.9651 120.858 27.54V27.6399C121.146 27.7499 121.391 27.9491 121.558 28.208C121.725 28.467 121.805 28.7725 121.787 29.0801V34.51C121.768 34.9293 121.836 35.3478 121.988 35.739C122.14 36.1302 122.372 36.4855 122.669 36.782C122.966 37.0785 123.322 37.3098 123.714 37.4609C124.105 37.6121 124.524 37.6798 124.943 37.6599ZM131.015 25.6699C131.34 25.6687 131.657 25.5714 131.927 25.3901C132.196 25.2089 132.406 24.952 132.53 24.6516C132.654 24.3512 132.686 24.0207 132.622 23.7021C132.558 23.3836 132.402 23.0912 132.172 22.8616C131.942 22.6319 131.649 22.4754 131.331 22.4119C131.012 22.3483 130.682 22.3805 130.382 22.5044C130.081 22.6283 129.824 22.8384 129.643 23.1082C129.462 23.3779 129.365 23.6951 129.364 24.02C129.359 24.2381 129.399 24.4549 129.48 24.6572C129.562 24.8596 129.683 25.0433 129.837 25.1975C129.992 25.3517 130.175 25.473 130.378 25.5542C130.58 25.6354 130.797 25.6747 131.015 25.6699ZM133 37.3899V37.29C132.586 36.5893 132.385 35.7831 132.421 34.97V26.8401H132.321L128.894 27.99V28.1001C129.172 28.4019 129.382 28.7596 129.51 29.1494C129.638 29.5392 129.682 29.9522 129.637 30.3601V34.97C129.674 35.783 129.473 36.5892 129.059 37.29V37.3899H133ZM144.213 33.9199C143.936 34.4566 143.51 34.9024 142.987 35.2039C142.463 35.5053 141.864 35.6498 141.261 35.6201C139.134 35.6201 137.338 33.96 137.214 30.77H144.275C144.28 30.2319 144.173 29.6986 143.962 29.2036C143.751 28.7087 143.44 28.2628 143.048 27.8938C142.656 27.5248 142.193 27.2407 141.686 27.0593C141.18 26.878 140.641 26.8034 140.104 26.8401C137.338 26.8401 134.963 29.06 134.963 32.5C134.907 33.1708 134.994 33.8459 135.218 34.4807C135.442 35.1156 135.797 35.6959 136.261 36.1833C136.726 36.6708 137.288 37.0543 137.911 37.3088C138.534 37.5634 139.204 37.683 139.877 37.6599C140.957 37.6857 142.01 37.3222 142.845 36.6355C143.679 35.9488 144.238 34.9849 144.42 33.9199H144.213ZM139.32 27.4399C140.62 27.4399 141.364 28.59 141.529 30.3H137.214C137.253 28.38 138.12 27.4399 139.318 27.4399H139.32ZM149.833 37.6599C151.877 37.6599 154.003 36.7301 154.003 34.3101C154.003 32.1101 152.414 31.28 150.349 30.73C148.821 30.32 147.995 29.8899 147.995 28.8999C147.992 28.6853 148.034 28.4726 148.119 28.2754C148.204 28.0782 148.329 27.9012 148.487 27.7559C148.645 27.6105 148.832 27.5001 149.035 27.4319C149.239 27.3637 149.454 27.3393 149.668 27.3601C151.051 27.3601 152.517 28.69 153.136 30.48H153.343V27.6001C152.309 27.1355 151.193 26.8773 150.06 26.8401C147.768 26.8401 146.075 28.1201 146.075 30.1101C146.075 32.2301 147.686 33.03 149.668 33.53C151.257 33.92 152.021 34.3699 152.021 35.3999C152.025 35.64 151.978 35.8784 151.885 36.0996C151.791 36.3208 151.653 36.5201 151.478 36.6848C151.303 36.8495 151.096 36.9758 150.87 37.0559C150.643 37.136 150.402 37.168 150.163 37.1499C149.279 37.0325 148.45 36.6555 147.781 36.0662C147.112 35.4768 146.633 34.702 146.405 33.8401H146.2V36.8999C147.34 37.4154 148.58 37.6748 149.831 37.6599H149.833ZM0 0V37.9099H12.315V10.77H30.242V0H0ZM30.217 37.96L42.781 44V16.8701L30.217 10.8301V37.96Z" fill="black"/>
</svg>
