<svg width="139" height="56" viewBox="0 0 139 56" fill="none" xmlns="http://www.w3.org/2000/svg">
<path fill-rule="evenodd" clip-rule="evenodd" d="M78.28 12.95H72.05C72.0569 9.51405 73.4262 6.22114 75.8576 3.79346C78.289 1.36578 81.584 0.00158184 85.02 0V6.22998C83.2363 6.23129 81.5257 6.9391 80.2625 8.19849C78.9994 9.45787 78.2866 11.1663 78.28 12.95ZM65.31 27.8201V21.6001C67.0953 21.5983 68.8069 20.8889 70.0703 19.6274C71.3336 18.366 72.0455 16.6554 72.05 14.8701H78.28C78.2731 18.306 76.9038 21.5989 74.4724 24.0266C72.0409 26.4543 68.7459 27.8185 65.31 27.8201ZM63.39 27.8201C59.953 27.8188 56.6568 26.4548 54.2237 24.0273C51.7906 21.5999 50.4192 18.307 50.41 14.8701H56.65C56.6529 16.6559 57.3642 18.3674 58.6279 19.6292C59.8915 20.8909 61.6042 21.5998 63.39 21.6001V27.8201ZM56.65 12.95H50.41C50.4192 9.51305 51.7906 6.21993 54.2237 3.79248C56.6568 1.36503 59.953 0.00131093 63.39 0V6.22998C61.6058 6.22971 59.8943 6.93705 58.6308 8.19678C57.3673 9.45651 56.655 11.1658 56.65 12.95ZM6.96991 54.98C7.90481 54.9954 8.83279 54.8168 9.69513 54.4553C10.5575 54.0939 11.3354 53.5573 11.9799 52.8799C12.0635 52.8141 12.1303 52.7298 12.175 52.6333C12.2197 52.5368 12.2409 52.4312 12.237 52.325C12.2331 52.2187 12.2041 52.1147 12.1525 52.0217C12.1009 51.9288 12.028 51.8495 11.9399 51.79L11.2199 51.1899C11.1468 51.1139 11.0582 51.0546 10.96 51.0159C10.8619 50.9772 10.7565 50.9601 10.6512 50.9658C10.5458 50.9715 10.443 50.9998 10.3495 51.0488C10.2561 51.0979 10.1744 51.1665 10.1099 51.25C9.28387 52.0646 8.17011 52.5209 7.00995 52.52C5.87504 52.4957 4.79482 52.0276 4.00079 51.2163C3.20677 50.4051 2.76215 49.3151 2.76215 48.1799C2.76215 47.0448 3.20677 45.9548 4.00079 45.1436C4.79482 44.3323 5.87504 43.8645 7.00995 43.8401C8.17032 43.8381 9.28448 44.2946 10.1099 45.1101C10.1785 45.1875 10.2618 45.2504 10.3549 45.2954C10.448 45.3404 10.5491 45.3665 10.6524 45.3721C10.7557 45.3777 10.8591 45.3626 10.9565 45.3279C11.0539 45.2932 11.1434 45.2395 11.2199 45.1699L11.9399 44.55C12.0282 44.4907 12.1013 44.4113 12.153 44.3184C12.2048 44.2254 12.2338 44.1215 12.2377 44.0151C12.2416 43.9088 12.2203 43.803 12.1755 43.7065C12.1307 43.61 12.0637 43.5256 11.9799 43.46C11.2062 42.6097 10.2318 41.9667 9.14581 41.5896C8.05979 41.2125 6.8966 41.1133 5.76239 41.301C4.62818 41.4888 3.55911 41.9573 2.65253 42.6643C1.74595 43.3713 1.03082 44.2941 0.572326 45.3484C0.113833 46.4026 -0.0734411 47.5548 0.0276481 48.7C0.128737 49.8451 0.514973 50.9469 1.15106 51.9045C1.78715 52.8622 2.65284 53.6452 3.66925 54.1824C4.68566 54.7196 5.82035 54.9938 6.96991 54.98ZM19.5699 44.3799C19.0478 44.3652 18.5282 44.456 18.0419 44.6467C17.5557 44.8374 17.1128 45.1243 16.7399 45.49V41.1001C16.7634 40.9921 16.7585 40.8799 16.7256 40.7744C16.6928 40.6689 16.6331 40.5738 16.5526 40.4983C16.472 40.4227 16.3732 40.3692 16.2658 40.3433C16.1584 40.3173 16.0461 40.3198 15.9399 40.3501L14.8599 40.55C14.7581 40.552 14.6578 40.574 14.5645 40.6147C14.4712 40.6555 14.3868 40.7142 14.3162 40.7876C14.2456 40.861 14.1903 40.9474 14.1531 41.0422C14.116 41.137 14.0979 41.2383 14.0999 41.3401V53.95C14.0891 54.0538 14.101 54.1588 14.1349 54.2576C14.1689 54.3563 14.2239 54.4465 14.2963 54.5217C14.3687 54.597 14.4567 54.6554 14.554 54.6931C14.6514 54.7308 14.7557 54.7468 14.8599 54.74H15.9999C16.1033 54.7468 16.2067 54.7307 16.303 54.6926C16.3993 54.6546 16.486 54.5956 16.5568 54.52C16.6276 54.4445 16.6808 54.3542 16.7125 54.2556C16.7441 54.157 16.7535 54.0526 16.7399 53.95V48.8999C16.7218 48.6067 16.7658 48.3131 16.8692 48.0381C16.9726 47.7631 17.1329 47.5129 17.3397 47.3042C17.5465 47.0955 17.7951 46.933 18.0692 46.8271C18.3432 46.7213 18.6366 46.6744 18.93 46.6899C19.2189 46.6764 19.5073 46.7252 19.7757 46.833C20.0441 46.9408 20.2861 47.105 20.4853 47.3147C20.6845 47.5244 20.8363 47.7746 20.9302 48.0481C21.0242 48.3216 21.0583 48.6121 21.03 48.8999V53.95C21.0191 54.0538 21.0311 54.1588 21.065 54.2576C21.0989 54.3563 21.154 54.4465 21.2264 54.5217C21.2988 54.597 21.3866 54.6554 21.4839 54.6931C21.5813 54.7308 21.6858 54.7468 21.79 54.74H22.9499C23.0532 54.7468 23.1568 54.7307 23.2531 54.6926C23.3494 54.6546 23.436 54.5956 23.5068 54.52C23.5776 54.4445 23.6308 54.3542 23.6624 54.2556C23.6941 54.157 23.7034 54.0526 23.6899 53.95V48.7C23.7366 48.1379 23.6637 47.5724 23.4759 47.0405C23.2881 46.5087 22.9898 46.0224 22.6005 45.6143C22.2113 45.2061 21.7398 44.8851 21.2175 44.6724C20.6951 44.4596 20.1336 44.3599 19.5699 44.3799ZM35.53 44.49H34.79C34.6879 44.4808 34.585 44.4941 34.4886 44.5291C34.3922 44.564 34.3046 44.6196 34.2321 44.6921C34.1596 44.7646 34.104 44.8523 34.069 44.9487C34.0341 45.0451 34.0208 45.1479 34.03 45.25V45.72C33.1114 44.8586 31.8992 44.3794 30.64 44.3799C29.2821 44.4544 28.0043 45.0465 27.0694 46.0342C26.1345 47.0218 25.6136 48.33 25.6136 49.6899C25.6136 51.0499 26.1345 52.3583 27.0694 53.3459C28.0043 54.3336 29.2821 54.9254 30.64 55C31.2804 55.007 31.9148 54.8756 32.4998 54.615C33.0849 54.3544 33.6068 53.9707 34.03 53.49V53.95C34.0191 54.0538 34.0311 54.1588 34.065 54.2576C34.0989 54.3563 34.154 54.4465 34.2264 54.5217C34.2988 54.597 34.3866 54.6554 34.4839 54.6931C34.5813 54.7308 34.6858 54.7468 34.79 54.74H35.53C35.6341 54.7468 35.7385 54.7308 35.8359 54.6931C35.9332 54.6554 36.0212 54.597 36.0936 54.5217C36.1659 54.4465 36.221 54.3563 36.2549 54.2576C36.2889 54.1588 36.3008 54.0538 36.29 53.95V45.25C36.2992 45.1479 36.2859 45.0451 36.2509 44.9487C36.216 44.8523 36.1602 44.7646 36.0877 44.6921C36.0152 44.6196 35.9277 44.564 35.8314 44.5291C35.735 44.4941 35.6321 44.4808 35.53 44.49ZM31.04 52.6599C30.2862 52.6082 29.5801 52.2724 29.0645 51.7202C28.5489 51.168 28.2621 50.4406 28.2621 49.6851C28.2621 48.9295 28.5489 48.2021 29.0645 47.6499C29.5801 47.0977 30.2862 46.7617 31.04 46.71C31.789 46.7683 32.4885 47.107 32.9987 47.6584C33.5089 48.2099 33.7923 48.9337 33.7923 49.6851C33.7923 50.4364 33.5089 51.1599 32.9987 51.7114C32.4885 52.2629 31.789 52.6016 31.04 52.6599ZM45.81 44.5701C45.399 44.4417 44.9706 44.3775 44.54 44.3799C43.9855 44.3628 43.4364 44.4927 42.9482 44.7561C42.46 45.0195 42.0501 45.4071 41.7599 45.8799C41.6416 45.4231 41.3664 45.0228 40.9825 44.7485C40.5986 44.4743 40.1304 44.3437 39.66 44.3799C39.1719 44.3818 38.6915 44.502 38.2599 44.73C38.1806 44.7644 38.1094 44.8151 38.051 44.8789C37.9925 44.9427 37.9482 45.0183 37.9208 45.1003C37.8935 45.1824 37.8837 45.2694 37.8922 45.3555C37.9006 45.4416 37.9271 45.5249 37.9699 45.6001L38.15 46.4399C38.3 46.8699 38.5199 46.9699 38.7399 46.8899C38.9199 46.8699 39.1399 46.75 39.3199 46.75C39.3595 46.7495 39.3988 46.7581 39.4348 46.7749C39.4707 46.7917 39.5023 46.8164 39.5273 46.8472C39.5523 46.8779 39.57 46.914 39.5792 46.9526C39.5883 46.9912 39.5885 47.0314 39.5799 47.0701V53.95C39.5664 54.0526 39.5758 54.157 39.6075 54.2556C39.6391 54.3542 39.6922 54.4445 39.763 54.52C39.8338 54.5956 39.9205 54.6546 40.0168 54.6926C40.1131 54.7307 40.2166 54.7468 40.3199 54.74H41.4799C41.5841 54.7468 41.6885 54.7308 41.7858 54.6931C41.8832 54.6554 41.9711 54.597 42.0435 54.5217C42.1159 54.4465 42.171 54.3563 42.2049 54.2576C42.2388 54.1588 42.2508 54.0538 42.2399 53.95V49.1499C42.2399 47.6899 42.98 46.6899 44.28 46.6899C44.5901 46.6927 44.8975 46.7469 45.1899 46.8501C45.2716 46.8854 45.3607 46.9005 45.4495 46.8945C45.5384 46.8885 45.6245 46.8614 45.7007 46.8154C45.777 46.7695 45.8412 46.7061 45.888 46.6304C45.9348 46.5546 45.9629 46.4686 45.9699 46.3799L46.2299 45.3701C46.27 45.2912 46.2906 45.2037 46.29 45.1152C46.2894 45.0268 46.2676 44.9399 46.2265 44.8616C46.1854 44.7832 46.1261 44.7158 46.0536 44.665C45.9812 44.6143 45.8977 44.5819 45.81 44.5701ZM50.0899 55C50.6365 55.0104 51.1758 54.8722 51.65 54.6001C51.7275 54.5694 51.7969 54.5214 51.8533 54.46C51.9097 54.3986 51.9515 54.3252 51.9755 54.2454C51.9996 54.1655 52.0053 54.0814 51.9922 53.999C51.9791 53.9167 51.9476 53.8384 51.9 53.77L51.67 52.98C51.51 52.56 51.3099 52.42 50.9699 52.54C50.8436 52.5969 50.7081 52.6306 50.5699 52.6399C50.3299 52.6399 50.29 52.48 50.29 52.25V41.1001C50.3158 40.991 50.3127 40.8771 50.2811 40.7695C50.2494 40.662 50.1903 40.5645 50.1096 40.4868C50.0288 40.4091 49.9291 40.3537 49.8205 40.3262C49.7118 40.2987 49.5979 40.3001 49.4899 40.3301L48.3699 40.55C48.2692 40.5526 48.1701 40.5752 48.0782 40.6165C47.9863 40.6577 47.9035 40.7168 47.8347 40.7903C47.7658 40.8638 47.7122 40.95 47.6771 41.0444C47.6419 41.1388 47.6259 41.2394 47.6299 41.3401V52.4199C47.5826 52.7594 47.6125 53.1053 47.7176 53.4316C47.8226 53.7579 48.0001 54.0564 48.2366 54.3044C48.4732 54.5525 48.7628 54.7438 49.0837 54.8643C49.4046 54.9847 49.7485 55.0312 50.0899 55ZM54.8199 42.8501C55.1639 42.8531 55.501 42.7535 55.7884 42.5645C56.0758 42.3754 56.3005 42.1054 56.434 41.7883C56.5675 41.4713 56.6037 41.1216 56.538 40.7839C56.4724 40.4463 56.3079 40.1358 56.0654 39.8918C55.8228 39.6479 55.5131 39.4814 55.1758 39.4138C54.8386 39.3462 54.4888 39.3806 54.171 39.5122C53.8531 39.6438 53.5816 39.8668 53.3909 40.1531C53.2002 40.4394 53.0989 40.7761 53.0999 41.1201C53.0994 41.5774 53.2801 42.0161 53.6025 42.3403C53.9249 42.6646 54.3626 42.848 54.8199 42.8501ZM55.9599 55C56.5002 55.0101 57.0329 54.8718 57.4999 54.6001C57.5757 54.5674 57.6436 54.5186 57.6989 54.4573C57.7542 54.3959 57.7954 54.3234 57.8201 54.2446C57.8448 54.1658 57.8523 54.0826 57.8419 54.0007C57.8315 53.9188 57.8035 53.8401 57.7599 53.77L57.52 52.98C57.38 52.56 57.1599 52.42 56.8399 52.54C56.7074 52.5993 56.565 52.6331 56.42 52.6399C56.2 52.6399 56.14 52.48 56.14 52.25V45.3101C56.1524 45.209 56.1419 45.1065 56.1094 45.01C56.077 44.9135 56.0232 44.8254 55.9522 44.7524C55.8812 44.6795 55.7948 44.6234 55.6992 44.5884C55.6036 44.5533 55.5013 44.5403 55.4 44.55H54.2399C54.1378 44.5408 54.0349 44.5542 53.9385 44.5891C53.8422 44.6241 53.7547 44.6797 53.6822 44.7522C53.6097 44.8247 53.5539 44.9122 53.519 45.0085C53.484 45.1049 53.4707 45.2079 53.4799 45.3101V52.3999C53.431 52.7423 53.4605 53.0915 53.566 53.4209C53.6715 53.7503 53.8503 54.0515 54.0891 54.3018C54.3278 54.552 54.6202 54.7448 54.9443 54.8657C55.2683 54.9867 55.6156 55.0327 55.9599 55ZM61.3499 50.3H68.28C68.3931 50.3205 68.5094 50.313 68.619 50.2783C68.7285 50.2437 68.828 50.1828 68.9088 50.1011C68.9895 50.0193 69.0491 49.9193 69.0825 49.8093C69.1158 49.6993 69.1217 49.5828 69.0999 49.47C69.0707 48.0935 68.496 46.785 67.502 45.8323C66.5081 44.8796 65.1765 44.3607 63.8 44.3899C62.4235 44.4191 61.115 44.9939 60.1623 45.9878C59.2096 46.9817 58.6907 48.3135 58.7199 49.6899C58.7047 50.4034 58.8364 51.1123 59.1068 51.7727C59.3771 52.4331 59.7803 53.0308 60.2914 53.5288C60.8026 54.0268 61.4106 54.4144 62.0778 54.6675C62.745 54.9206 63.4572 55.0338 64.17 55C65.7211 55.0331 67.229 54.4877 68.4 53.47C68.4706 53.4148 68.5278 53.3442 68.5671 53.2637C68.6064 53.1831 68.6268 53.0945 68.6268 53.0049C68.6268 52.9152 68.6064 52.8269 68.5671 52.7463C68.5278 52.6658 68.4706 52.5952 68.4 52.54L67.92 52.05C67.8628 51.9774 67.7899 51.9188 67.7067 51.8784C67.6236 51.8381 67.5323 51.8171 67.4399 51.8171C67.3475 51.8171 67.2563 51.8381 67.1732 51.8784C67.09 51.9188 67.0171 51.9774 66.9599 52.05C66.2395 52.6369 65.3392 52.9581 64.41 52.96C63.6539 53.0025 62.9111 52.7482 62.3397 52.2515C61.7682 51.7547 61.4131 51.0546 61.3499 50.3ZM63.93 46.3601C64.2739 46.3471 64.6166 46.4071 64.9355 46.5364C65.2544 46.6657 65.5422 46.8613 65.78 47.1101C66.1751 47.5316 66.427 48.0668 66.4999 48.6399H61.3699C61.4236 48.0044 61.7191 47.4137 62.1954 46.9895C62.6716 46.5653 63.2925 46.3402 63.93 46.3601ZM80.1999 54.98C82.9599 54.98 85.14 53.5501 85.14 51.0801C85.14 48.1401 82.5199 47.49 80.3199 46.75C79.1699 46.36 78.1099 45.98 78.1099 44.99C78.1099 44.16 78.95 43.6001 80.14 43.6001C81.1702 43.6119 82.1572 44.0159 82.9 44.73C82.9763 44.8086 83.0692 44.8693 83.1719 44.9075C83.2746 44.9457 83.3846 44.9605 83.4937 44.9509C83.6029 44.9414 83.7086 44.9076 83.803 44.8521C83.8975 44.7966 83.9785 44.7206 84.04 44.6299L84.4999 44.0801C84.5826 44.0031 84.646 43.9076 84.6848 43.8015C84.7235 43.6954 84.7366 43.5814 84.723 43.4692C84.7093 43.3571 84.6692 43.2497 84.6061 43.156C84.5431 43.0623 84.4587 42.9848 84.3599 42.9299C83.1888 41.8902 81.6654 41.3359 80.0999 41.3799C77.2899 41.3799 75.3499 42.9299 75.3499 45.1499C75.3499 47.5299 77.49 48.48 79.15 49.03C80.92 49.63 82.3799 49.7901 82.3799 51.1001C82.3799 52.0101 81.48 52.6399 80.04 52.6399C78.7624 52.6054 77.5506 52.066 76.67 51.1399C76.5935 51.057 76.4988 50.993 76.3935 50.9526C76.2882 50.9123 76.175 50.8968 76.0627 50.9075C75.9504 50.9181 75.842 50.9545 75.7462 51.0139C75.6503 51.0733 75.5695 51.1542 75.5099 51.25L75.05 51.79C74.966 51.8656 74.9003 51.9592 74.8578 52.064C74.8154 52.1687 74.7974 52.2818 74.8051 52.3945C74.8128 52.5073 74.8461 52.6166 74.9024 52.7146C74.9587 52.8126 75.0365 52.8965 75.1299 52.96C75.7886 53.63 76.5796 54.1557 77.4525 54.5034C78.3253 54.8512 79.2609 55.0135 80.1999 54.98ZM97.9399 53.77L97.7199 53.0601C97.7134 52.9881 97.6915 52.9184 97.6555 52.8557C97.6194 52.7931 97.5702 52.7388 97.5113 52.697C97.4524 52.6552 97.3852 52.6268 97.3141 52.6135C97.2431 52.6002 97.17 52.6025 97.0999 52.6201C96.9199 52.6401 96.7799 52.72 96.6199 52.72C96.3999 52.72 96.3599 52.5601 96.3599 52.3301V45.3101C96.3691 45.2079 96.3558 45.1049 96.3209 45.0085C96.2859 44.9122 96.2303 44.8247 96.1578 44.7522C96.0853 44.6797 95.9977 44.6241 95.9013 44.5891C95.8049 44.5542 95.702 44.5408 95.5999 44.55H94.4399C94.3385 44.5403 94.2364 44.5533 94.1408 44.5884C94.0452 44.6234 93.9587 44.6795 93.8876 44.7524C93.8166 44.8254 93.7629 44.9135 93.7304 45.01C93.6979 45.1065 93.6874 45.209 93.6999 45.3101V50.48C93.7279 50.7648 93.6947 51.0521 93.6024 51.323C93.5101 51.5939 93.3609 51.8419 93.1649 52.0503C92.9688 52.2587 92.7303 52.4226 92.4655 52.5312C92.2008 52.6399 91.9159 52.6906 91.6299 52.6799C91.3541 52.6869 91.08 52.6351 90.8259 52.5278C90.5717 52.4205 90.3433 52.2604 90.1559 52.0579C89.9686 51.8554 89.8266 51.6152 89.7393 51.3535C89.6521 51.0918 89.6216 50.8145 89.65 50.54V45.3101C89.6592 45.2079 89.6458 45.1049 89.6109 45.0085C89.576 44.9122 89.5202 44.8247 89.4477 44.7522C89.3752 44.6797 89.2877 44.6241 89.1913 44.5891C89.095 44.5542 88.9921 44.5408 88.89 44.55H87.7299C87.6286 44.5403 87.5263 44.5533 87.4307 44.5884C87.3351 44.6234 87.2487 44.6795 87.1777 44.7524C87.1066 44.8254 87.0528 44.9135 87.0203 45.01C86.9878 45.1065 86.9775 45.209 86.9899 45.3101V50.8401C86.9512 51.3878 87.029 51.9373 87.218 52.4529C87.4069 52.9684 87.7029 53.4381 88.0864 53.8311C88.4699 54.224 88.9323 54.5314 89.4431 54.7329C89.9538 54.9344 90.5015 55.0254 91.05 55C91.662 55.0313 92.2707 54.8928 92.8089 54.5999C93.3471 54.3069 93.7939 53.871 94.0999 53.3401C94.1822 53.8202 94.4369 54.2537 94.8162 54.5593C95.1955 54.865 95.6734 55.0216 96.16 55C96.6908 55.0056 97.2142 54.8748 97.68 54.6201C97.7568 54.5857 97.8254 54.535 97.8812 54.4719C97.9369 54.4088 97.9785 54.3347 98.0031 54.2542C98.0277 54.1736 98.0348 54.0886 98.0239 54.0051C98.013 53.9216 97.9843 53.8415 97.9399 53.77ZM106.07 53.49L105.71 52.6399C105.69 52.5509 105.646 52.4691 105.584 52.4023C105.522 52.3356 105.443 52.2864 105.356 52.26C105.268 52.2336 105.175 52.2309 105.087 52.252C104.998 52.273 104.916 52.3171 104.85 52.3799C104.575 52.5593 104.258 52.6629 103.93 52.6799C103.733 52.6893 103.536 52.6533 103.355 52.5745C103.174 52.4956 103.013 52.3761 102.885 52.2253C102.758 52.0745 102.666 51.8965 102.619 51.7048C102.571 51.5131 102.568 51.3132 102.61 51.1201V46.5601H104.83C104.933 46.5706 105.038 46.5583 105.136 46.5242C105.234 46.49 105.323 46.4348 105.397 46.3623C105.472 46.2898 105.529 46.2019 105.566 46.1047C105.603 46.0076 105.618 45.9036 105.61 45.8V45.29C105.616 45.1877 105.601 45.085 105.563 44.9895C105.526 44.894 105.468 44.8079 105.393 44.7373C105.319 44.6667 105.23 44.6134 105.132 44.5811C105.035 44.5487 104.932 44.5381 104.83 44.55H102.61V41.76C102.635 41.6511 102.631 41.5375 102.599 41.4304C102.567 41.3233 102.508 41.2264 102.428 41.1489C102.347 41.0714 102.248 41.0161 102.14 40.9883C102.031 40.9604 101.918 40.961 101.81 40.99L100.73 41.22C100.628 41.22 100.527 41.2402 100.433 41.2795C100.339 41.3189 100.254 41.3764 100.182 41.449C100.11 41.5215 100.054 41.6076 100.016 41.7021C99.9776 41.7967 99.9586 41.898 99.9599 42V44.55H98.9799C98.878 44.5381 98.7748 44.5487 98.6774 44.5811C98.5801 44.6134 98.4911 44.6667 98.4167 44.7373C98.3423 44.8079 98.2843 44.894 98.2469 44.9895C98.2094 45.085 98.1933 45.1877 98.1999 45.29V45.8C98.192 45.9036 98.207 46.0076 98.2437 46.1047C98.2804 46.2019 98.338 46.2898 98.4124 46.3623C98.4868 46.4348 98.5762 46.49 98.6743 46.5242C98.7723 46.5583 98.8766 46.5706 98.9799 46.5601H99.9599V51.3701C99.9149 51.8495 99.9744 52.3328 100.134 52.7869C100.295 53.2409 100.551 53.6548 100.887 54C101.223 54.3452 101.629 54.6132 102.079 54.7859C102.528 54.9585 103.01 55.0316 103.49 55C104.286 55.0214 105.069 54.7943 105.73 54.3501C105.811 54.3183 105.884 54.2703 105.945 54.209C106.007 54.1477 106.055 54.0745 106.087 53.9939C106.118 53.9133 106.133 53.8269 106.131 53.7402C106.128 53.6536 106.107 53.5683 106.07 53.49ZM114.19 53.49L113.83 52.6399C113.808 52.5505 113.764 52.4684 113.701 52.4016C113.638 52.3349 113.558 52.2858 113.47 52.2595C113.382 52.2332 113.288 52.2306 113.199 52.2517C113.109 52.2728 113.027 52.3169 112.96 52.3799C112.685 52.5593 112.368 52.6629 112.04 52.6799C111.843 52.6893 111.646 52.6533 111.465 52.5745C111.284 52.4956 111.123 52.3761 110.995 52.2253C110.868 52.0745 110.777 51.8965 110.729 51.7048C110.681 51.5131 110.678 51.3132 110.72 51.1201V46.5601H112.94C113.044 46.5709 113.149 46.5588 113.247 46.5249C113.346 46.491 113.436 46.4359 113.512 46.3635C113.587 46.2911 113.645 46.2033 113.683 46.106C113.721 46.0086 113.737 45.9042 113.73 45.8V45.29C113.737 45.1867 113.721 45.0831 113.683 44.9868C113.645 44.8905 113.586 44.8039 113.51 44.7332C113.434 44.6624 113.344 44.6093 113.246 44.5776C113.147 44.546 113.043 44.5365 112.94 44.55H110.72V41.76C110.745 41.6511 110.741 41.5375 110.709 41.4304C110.677 41.3233 110.618 41.2264 110.538 41.1489C110.457 41.0714 110.358 41.0161 110.25 40.9883C110.141 40.9604 110.028 40.961 109.92 40.99L108.84 41.22C108.738 41.2201 108.638 41.2405 108.545 41.28C108.451 41.3195 108.366 41.3773 108.296 41.45C108.225 41.5226 108.169 41.6087 108.132 41.7031C108.095 41.7976 108.077 41.8986 108.08 42V44.55H107.1C106.997 44.5365 106.893 44.546 106.794 44.5776C106.696 44.6093 106.605 44.6624 106.53 44.7332C106.454 44.8039 106.395 44.8905 106.357 44.9868C106.319 45.0831 106.303 45.1867 106.31 45.29V45.8C106.302 45.9044 106.318 46.009 106.355 46.1067C106.393 46.2044 106.451 46.2927 106.527 46.3652C106.602 46.4378 106.693 46.4927 106.792 46.5264C106.891 46.56 106.996 46.5716 107.1 46.5601H108.08V51.3701C108.034 51.8488 108.092 52.3318 108.251 52.7856C108.41 53.2395 108.666 53.6533 109.001 53.9985C109.336 54.3438 109.742 54.6122 110.19 54.7852C110.639 54.9581 111.12 55.0313 111.6 55C112.399 55.0198 113.185 54.7929 113.85 54.3501C113.931 54.3183 114.004 54.2703 114.065 54.209C114.127 54.1477 114.175 54.0745 114.207 53.9939C114.238 53.9133 114.253 53.8269 114.251 53.7402C114.248 53.6536 114.227 53.5683 114.19 53.49ZM120.27 55C121.313 54.9672 122.324 54.6279 123.175 54.0244C124.027 53.4209 124.682 52.5799 125.058 51.6064C125.435 50.633 125.516 49.5702 125.292 48.5508C125.069 47.5313 124.55 46.6003 123.8 45.874C123.051 45.1477 122.104 44.6583 121.078 44.4668C120.052 44.2753 118.992 44.3903 118.031 44.7974C117.07 45.2044 116.25 45.8855 115.674 46.7556C115.097 47.6257 114.79 48.6462 114.79 49.6899C114.78 50.4045 114.916 51.1137 115.19 51.7737C115.464 52.4337 115.87 53.0308 116.384 53.5281C116.897 54.0254 117.506 54.4124 118.175 54.6655C118.843 54.9187 119.556 55.0325 120.27 55ZM120.27 52.6599C119.675 52.6897 119.085 52.5406 118.575 52.2314C118.066 51.9223 117.661 51.4676 117.413 50.926C117.165 50.3844 117.085 49.781 117.183 49.1934C117.281 48.6058 117.553 48.061 117.964 47.6296C118.375 47.1983 118.906 46.9002 119.488 46.7737C120.07 46.6472 120.677 46.6981 121.23 46.9199C121.783 47.1417 122.257 47.5243 122.59 48.0181C122.923 48.5119 123.101 49.0942 123.1 49.6899C123.123 50.0742 123.067 50.4592 122.935 50.8208C122.803 51.1824 122.598 51.513 122.332 51.7917C122.067 52.0705 121.746 52.2915 121.392 52.4409C121.037 52.5903 120.655 52.6647 120.27 52.6599ZM133.85 44.3799C133.212 44.3618 132.579 44.5066 132.012 44.8005C131.446 45.0945 130.963 45.528 130.61 46.0601C130.533 45.5609 130.269 45.1098 129.871 44.7979C129.474 44.486 128.973 44.3364 128.47 44.3799C127.979 44.3829 127.496 44.503 127.06 44.73C126.982 44.7659 126.912 44.8176 126.855 44.8818C126.798 44.9461 126.755 45.0217 126.729 45.1035C126.702 45.1853 126.693 45.2717 126.702 45.3572C126.711 45.4427 126.737 45.5254 126.78 45.6001L126.96 46.4399C127.1 46.8699 127.32 46.9699 127.55 46.8899C127.73 46.8699 127.95 46.75 128.13 46.75C128.17 46.7495 128.209 46.7581 128.245 46.7749C128.281 46.7917 128.312 46.8164 128.337 46.8472C128.362 46.8779 128.38 46.914 128.389 46.9526C128.398 46.9912 128.399 47.0314 128.39 47.0701V53.95C128.376 54.0526 128.386 54.157 128.417 54.2556C128.449 54.3542 128.502 54.4445 128.573 54.52C128.644 54.5956 128.731 54.6546 128.827 54.6926C128.923 54.7307 129.027 54.7468 129.13 54.74H130.29C130.394 54.7468 130.499 54.7308 130.596 54.6931C130.693 54.6554 130.781 54.597 130.854 54.5217C130.926 54.4465 130.981 54.3563 131.015 54.2576C131.049 54.1588 131.061 54.0538 131.05 53.95V48.8999C131.03 48.6088 131.072 48.317 131.173 48.0432C131.274 47.7694 131.431 47.5199 131.635 47.3113C131.839 47.1026 132.085 46.9393 132.356 46.8323C132.628 46.7252 132.918 46.6767 133.21 46.6899C133.501 46.6731 133.792 46.7195 134.064 46.8257C134.335 46.9319 134.581 47.0955 134.783 47.3054C134.985 47.5153 135.14 47.7665 135.236 48.0417C135.332 48.317 135.368 48.6097 135.34 48.8999V53.95C135.326 54.0526 135.336 54.157 135.367 54.2556C135.399 54.3542 135.452 54.4445 135.523 54.52C135.594 54.5956 135.68 54.6546 135.777 54.6926C135.873 54.7307 135.977 54.7468 136.08 54.74H137.24C137.344 54.7468 137.448 54.7308 137.546 54.6931C137.643 54.6554 137.731 54.597 137.804 54.5217C137.876 54.4465 137.931 54.3563 137.965 54.2576C137.999 54.1588 138.011 54.0538 138 53.95V48.7C138.042 48.1362 137.966 47.5698 137.774 47.0378C137.583 46.5058 137.282 46.0202 136.89 45.6125C136.499 45.2049 136.026 44.8845 135.502 44.6721C134.978 44.4597 134.415 44.36 133.85 44.3799Z" fill="black"/>
</svg>
