<!-- Generated by IcoMoon.io -->
<svg version="1.1" xmlns="http://www.w3.org/2000/svg" width="142" height="32" viewBox="0 0 142 32">
<title>Logo</title>
<path d="M5.396 22.104v-11.479h-4.917v10.146c0 1.736 0.188 3.299 0.563 4.687 0.389 1.375 1 2.549 1.833 3.521 0.847 0.958 1.938 1.701 3.271 2.229 1.347 0.528 2.972 0.792 4.875 0.792 3.444 0 6.083-1 7.917-3 1.833-2.014 2.75-4.757 2.75-8.229v-10.146h-4.917v11.479c0 1.417-0.146 2.611-0.438 3.583-0.278 0.972-0.681 1.743-1.208 2.313-0.514 0.556-1.146 0.951-1.896 1.188-0.736 0.222-1.542 0.319-2.417 0.292-0.889 0.028-1.674-0.076-2.354-0.312-0.681-0.25-1.25-0.66-1.708-1.229s-0.799-1.326-1.021-2.271c-0.222-0.958-0.333-2.146-0.333-3.562zM58.408 20.562v11.396h4.896v-10.063c0-1.736-0.194-3.292-0.583-4.667-0.375-1.389-0.986-2.562-1.833-3.521-0.833-0.972-1.917-1.722-3.25-2.25s-2.958-0.792-4.875-0.792c-1.792 0-3.361 0.278-4.708 0.833s-2.479 1.361-3.396 2.417c-0.819-1-1.903-1.764-3.25-2.292-1.333-0.528-2.965-0.792-4.896-0.792-3.444 0-6.083 1.007-7.917 3.021-1.833 2-2.75 4.736-2.75 8.208v9.896h4.917v-11.229c0-1.417 0.139-2.604 0.417-3.562 0.278-0.972 0.681-1.743 1.208-2.313s1.16-0.965 1.896-1.188c0.75-0.236 1.563-0.34 2.438-0.313 0.889-0.028 1.667 0.083 2.333 0.333 0.667 0.236 1.229 0.639 1.687 1.208s0.806 1.326 1.042 2.271c0.236 0.93 0.354 2.090 0.354 3.479v11.312h4.917c0-2.583 0-4.618 0-6.104 0-1.472 0-2.583 0-3.333 0-0.736-0.007-1.215-0.021-1.438-0.014-0.236-0.021-0.41-0.021-0.521 0-1.417 0.139-2.611 0.417-3.583 0.292-0.972 0.701-1.736 1.229-2.292 0.528-0.569 1.16-0.965 1.896-1.188 0.736-0.236 1.549-0.34 2.438-0.312 0.875-0.028 1.653 0.083 2.333 0.333 0.681 0.236 1.25 0.639 1.708 1.208s0.798 1.333 1.021 2.292c0.236 0.944 0.354 2.125 0.354 3.542zM73.171 10.542h-4.896v21.417h4.896v-21.417zM67.463 3.25c0 0.875 0.306 1.625 0.917 2.25s1.361 0.938 2.25 0.938c0.361 0 0.729-0.083 1.104-0.25 0.389-0.167 0.743-0.396 1.063-0.688 0.319-0.306 0.569-0.653 0.75-1.042s0.271-0.792 0.271-1.208c0-0.889-0.312-1.646-0.938-2.271s-1.375-0.938-2.25-0.938c-0.889 0-1.639 0.313-2.25 0.938s-0.917 1.382-0.917 2.271zM110.558 20.562v11.396h4.896v-10.063c0-1.736-0.194-3.292-0.583-4.667-0.374-1.389-0.986-2.562-1.833-3.521-0.834-0.972-1.917-1.722-3.25-2.25s-2.959-0.792-4.875-0.792c-1.792 0-3.361 0.278-4.708 0.833s-2.479 1.361-3.396 2.417c-0.819-1-1.903-1.764-3.25-2.292-1.333-0.528-2.965-0.792-4.896-0.792-3.444 0-6.083 1.007-7.917 3.021-1.833 2-2.75 4.736-2.75 8.208v9.896h4.917v-11.229c0-1.417 0.139-2.604 0.417-3.562 0.278-0.972 0.681-1.743 1.208-2.313s1.16-0.965 1.896-1.188c0.75-0.236 1.563-0.34 2.438-0.313 0.889-0.028 1.667 0.083 2.333 0.333 0.667 0.236 1.229 0.639 1.687 1.208s0.806 1.326 1.042 2.271c0.236 0.93 0.354 2.090 0.354 3.479v11.312h4.917c0-2.583 0-4.618 0-6.104 0-1.472 0-2.583 0-3.333 0-0.736-0.007-1.215-0.021-1.438-0.014-0.236-0.021-0.41-0.021-0.521 0-1.417 0.139-2.611 0.417-3.583 0.292-0.972 0.701-1.736 1.229-2.292 0.528-0.569 1.16-0.965 1.896-1.188 0.736-0.236 1.549-0.34 2.437-0.312 0.875-0.028 1.653 0.083 2.334 0.333 0.681 0.236 1.25 0.639 1.708 1.208 0.459 0.569 0.799 1.333 1.021 2.292 0.237 0.944 0.354 2.125 0.354 3.542zM130.695 10.708c-1.958 0-3.638 0.299-5.041 0.896-1.389 0.597-2.528 1.389-3.417 2.375-0.876 0.972-1.529 2.104-1.958 3.396-0.417 1.278-0.639 2.611-0.667 4 0.055 1.417 0.299 2.771 0.729 4.063 0.431 1.278 1.084 2.41 1.958 3.396 0.89 0.972 2.021 1.743 3.396 2.313s3.041 0.854 4.999 0.854c1.889 0 3.493-0.285 4.813-0.854s2.403-1.326 3.25-2.271c0.861-0.958 1.493-2.083 1.895-3.375 0.417-1.305 0.653-2.681 0.708-4.125-0.055-1.389-0.299-2.722-0.729-4-0.417-1.292-1.056-2.424-1.917-3.396-0.847-0.986-1.924-1.778-3.229-2.375-1.306-0.597-2.903-0.896-4.793-0.896zM124.529 22.104v-1.5c0-1.417 0.139-2.597 0.417-3.542 0.277-0.958 0.681-1.722 1.209-2.292 0.527-0.569 1.159-0.972 1.895-1.208 0.75-0.25 1.563-0.361 2.437-0.333 0.889-0.028 1.701 0.076 2.437 0.313 0.736 0.222 1.369 0.618 1.897 1.188 0.527 0.569 0.93 1.34 1.207 2.313 0.292 0.958 0.438 2.146 0.438 3.562v1.5c0 1.417-0.146 2.611-0.438 3.583-0.277 0.972-0.681 1.743-1.207 2.313-0.528 0.556-1.161 0.951-1.897 1.188-0.736 0.222-1.549 0.319-2.437 0.292-0.875 0.028-1.687-0.076-2.437-0.312-0.736-0.25-1.369-0.66-1.895-1.229-0.528-0.569-0.931-1.326-1.209-2.271-0.278-0.958-0.417-2.146-0.417-3.562z"></path>
</svg>
